<?xml version="1.0" encoding="UTF-8" standalone="no"?><svg xmlns="http://www.w3.org/2000/svg" xmlns:xlink="http://www.w3.org/1999/xlink" contentScriptType="application/ecmascript" contentStyleType="text/css" height="293.91px" preserveAspectRatio="none" style="width:2126px;height:293px;" version="1.1" viewBox="0 0 2126 293" width="2126.05px" zoomAndPan="magnify"><defs><filter height="300%" id="f110gzwi8jeddz" width="300%" x="-1" y="-1"><feGaussianBlur result="blurOut" stdDeviation="2.02"/><feColorMatrix in="blurOut" result="blurOut2" type="matrix" values="0 0 0 0 0 0 0 0 0 0 0 0 0 0 0 0 0 0 .4 0"/><feOffset dx="4.04" dy="4.04" in="blurOut2" result="blurOut3"/><feBlend in="SourceGraphic" in2="blurOut3" mode="normal"/></filter></defs><g><text fill="#000000" font-family="sans-serif" font-size="18.18" lengthAdjust="spacingAndGlyphs" text-decoration="underline" textLength="220.18" x="958.995" y="18.8724">ADAPTER's Class Diagram</text><text fill="#000000" font-family="sans-serif" font-size="18.18" lengthAdjust="spacingAndGlyphs" textLength="0" x="1071.61" y="41.7394"/><!--MD5=[c0528f8a8fd1d55ed309f20867289e3b]
cluster com.mad.p03.np2020.routine--><polygon fill="#FFFFFF" filter="url(#f110gzwi8jeddz)" points="22.22,69.9741,230.28,69.9741,237.35,93.8195,278.76,93.8195,278.76,282.0741,22.22,282.0741,22.22,69.9741" style="stroke: #000000; stroke-width: 1.5150000000000001;"/><line style="stroke: #000000; stroke-width: 1.5150000000000001;" x1="22.22" x2="237.35" y1="93.8195" y2="93.8195"/><text fill="#000000" font-family="sans-serif" font-size="14.14" font-weight="bold" lengthAdjust="spacingAndGlyphs" textLength="202" x="26.26" y="86.6726">com.mad.p03.np2020.routine</text><!--MD5=[da28c1d652eb8427c96880ce4ab84eeb]
cluster com.mad.p03.np2020.routine.Adapter--><polygon fill="#FFFFFF" filter="url(#f110gzwi8jeddz)" points="46.46,114.4141,108.07,114.4141,115.14,138.2595,254.52,138.2595,254.52,257.8341,46.46,257.8341,46.46,114.4141" style="stroke: #000000; stroke-width: 1.5150000000000001;"/><line style="stroke: #000000; stroke-width: 1.5150000000000001;" x1="46.46" x2="115.14" y1="138.2595" y2="138.2595"/><text fill="#000000" font-family="sans-serif" font-size="14.14" font-weight="bold" lengthAdjust="spacingAndGlyphs" textLength="55.55" x="50.5" y="131.1126">Adapter</text><!--MD5=[38f035cb52bdd32f0497adb062304b55]
cluster androidx.recyclerview.widget.RecyclerView--><polygon fill="#FFFFFF" filter="url(#f110gzwi8jeddz)" points="303,135.6241,617.11,135.6241,624.18,159.4695,627.21,159.4695,627.21,236.6241,303,236.6241,303,135.6241" style="stroke: #000000; stroke-width: 1.5150000000000001;"/><line style="stroke: #000000; stroke-width: 1.5150000000000001;" x1="303" x2="624.18" y1="159.4695" y2="159.4695"/><text fill="#000000" font-family="sans-serif" font-size="14.14" font-weight="bold" lengthAdjust="spacingAndGlyphs" textLength="308.05" x="307.04" y="152.3226">androidx.recyclerview.widget.RecyclerView</text><!--MD5=[4d693f715ca92bafca276f55718100f5]
cluster com.mad.p03.np2020.routine.database--><polygon fill="#FFFFFF" filter="url(#f110gzwi8jeddz)" points="651.45,135.6241,928.19,135.6241,935.26,159.4695,957.48,159.4695,957.48,236.6241,651.45,236.6241,651.45,135.6241" style="stroke: #000000; stroke-width: 1.5150000000000001;"/><line style="stroke: #000000; stroke-width: 1.5150000000000001;" x1="651.45" x2="935.26" y1="159.4695" y2="159.4695"/><text fill="#000000" font-family="sans-serif" font-size="14.14" font-weight="bold" lengthAdjust="spacingAndGlyphs" textLength="270.68" x="655.49" y="152.3226">com.mad.p03.np2020.routine.database</text><!--MD5=[6ad32808f928386d4e4fd337af0e8356]
cluster com.mad.p03.np2020.routine.Class--><polygon fill="#FFFFFF" filter="url(#f110gzwi8jeddz)" points="981.72,135.6241,1232.2,135.6241,1239.27,159.4695,1242.3,159.4695,1242.3,236.6241,981.72,236.6241,981.72,135.6241" style="stroke: #000000; stroke-width: 1.5150000000000001;"/><line style="stroke: #000000; stroke-width: 1.5150000000000001;" x1="981.72" x2="1239.27" y1="159.4695" y2="159.4695"/><text fill="#000000" font-family="sans-serif" font-size="14.14" font-weight="bold" lengthAdjust="spacingAndGlyphs" textLength="244.42" x="985.76" y="152.3226">com.mad.p03.np2020.routine.Class</text><!--MD5=[a44ad8cda6aca70f99b950df61adc416]
cluster com.mad.p03.np2020.routine.Class.Habit--><polygon fill="#FFFFFF" filter="url(#f110gzwi8jeddz)" points="1266.54,135.6241,1557.42,135.6241,1564.49,159.4695,1567.52,159.4695,1567.52,236.6241,1266.54,236.6241,1266.54,135.6241" style="stroke: #000000; stroke-width: 1.5150000000000001;"/><line style="stroke: #000000; stroke-width: 1.5150000000000001;" x1="1266.54" x2="1564.49" y1="159.4695" y2="159.4695"/><text fill="#000000" font-family="sans-serif" font-size="14.14" font-weight="bold" lengthAdjust="spacingAndGlyphs" textLength="284.82" x="1270.58" y="152.3226">com.mad.p03.np2020.routine.Class.Habit</text><!--MD5=[b6880be5d143b80a833c4d4e62247f18]
cluster androidx.recyclerview.widget.ItemTouchHelper--><polygon fill="#FFFFFF" filter="url(#f110gzwi8jeddz)" points="1591.76,135.6241,1932.13,135.6241,1939.2,159.4695,1942.23,159.4695,1942.23,236.6241,1591.76,236.6241,1591.76,135.6241" style="stroke: #000000; stroke-width: 1.5150000000000001;"/><line style="stroke: #000000; stroke-width: 1.5150000000000001;" x1="1591.76" x2="1939.2" y1="159.4695" y2="159.4695"/><text fill="#000000" font-family="sans-serif" font-size="14.14" font-weight="bold" lengthAdjust="spacingAndGlyphs" textLength="334.31" x="1595.8" y="152.3226">androidx.recyclerview.widget.ItemTouchHelper</text><!--MD5=[8f1f47ddcaf886f5883ce68989fc141e]
cluster android.widget--><polygon fill="#FFFFFF" filter="url(#f110gzwi8jeddz)" points="1966.47,135.6241,2078.58,135.6241,2085.65,159.4695,2103.83,159.4695,2103.83,236.6241,1966.47,236.6241,1966.47,135.6241" style="stroke: #000000; stroke-width: 1.5150000000000001;"/><line style="stroke: #000000; stroke-width: 1.5150000000000001;" x1="1966.47" x2="2085.65" y1="159.4695" y2="159.4695"/><text fill="#000000" font-family="sans-serif" font-size="14.14" font-weight="bold" lengthAdjust="spacingAndGlyphs" textLength="106.05" x="1970.51" y="152.3226">android.widget</text><!--MD5=[5026c2bfe8c410f615a435c2d70b1b27]
class com.mad.p03.np2020.routine.Adapter.TaskTouchHelperAdapter--><rect fill="#FEFECE" filter="url(#f110gzwi8jeddz)" height="90.4029" id="com.mad.p03.np2020.routine.Adapter.TaskTouchHelperAdapter" style="stroke: #A80036; stroke-width: 1.5150000000000001;" width="174.73" x="63.125" y="150.7741"/><ellipse cx="78.275" cy="166.9341" fill="#B4A7E5" rx="11.11" ry="11.11" style="stroke: #A80036; stroke-width: 1.01;"/><path d="M79.285,163.9041 L79.285,169.9641 L81.305,169.9641 L81.7942,169.9641 L82.315,170.5953 L82.315,170.9741 L82.315,171.3528 L81.7942,171.9841 L81.305,171.9841 L75.245,171.9841 L74.7558,171.9841 L74.235,171.3528 L74.235,170.9741 L74.235,170.5953 L74.7558,169.9641 L75.245,169.9641 L77.265,169.9641 L77.265,163.9041 L75.245,163.9041 L74.7558,163.9041 L74.235,163.2728 L74.235,162.8941 L74.235,162.5153 L74.7558,161.8841 L75.245,161.8841 L81.305,161.8841 L81.7942,161.8841 L82.315,162.5153 L82.315,162.8941 L82.315,163.2728 L81.7942,163.9041 L81.305,163.9041 L79.285,163.9041 Z "/><text fill="#000000" font-family="sans-serif" font-size="12.12" font-style="italic" lengthAdjust="spacingAndGlyphs" textLength="142.41" x="92.415" y="171.8933">TaskTouchHelperAdapter</text><line style="stroke: #A80036; stroke-width: 1.5150000000000001;" x1="64.135" x2="236.845" y1="183.0941" y2="183.0941"/><line style="stroke: #A80036; stroke-width: 1.5150000000000001;" x1="64.135" x2="236.845" y1="191.1741" y2="191.1741"/><ellipse cx="74.235" cy="202.2841" fill="#84BE84" rx="3.03" ry="3.03" style="stroke: #038048; stroke-width: 1.01;"/><text fill="#000000" font-family="sans-serif" font-size="11.11" font-style="italic" lengthAdjust="spacingAndGlyphs" textLength="79.79" x="83.325" y="206.7472">onItemClicked()</text><ellipse cx="74.235" cy="216.2584" fill="#84BE84" rx="3.03" ry="3.03" style="stroke: #038048; stroke-width: 1.01;"/><text fill="#000000" font-family="sans-serif" font-size="11.11" font-style="italic" lengthAdjust="spacingAndGlyphs" textLength="67.67" x="83.325" y="220.7215">onItemMove()</text><ellipse cx="74.235" cy="230.2327" fill="#84BE84" rx="3.03" ry="3.03" style="stroke: #038048; stroke-width: 1.01;"/><text fill="#000000" font-family="sans-serif" font-size="11.11" font-style="italic" lengthAdjust="spacingAndGlyphs" textLength="76.76" x="83.325" y="234.6958">onItemSwiped()</text><!--MD5=[66219325d61d6862e02b98b8a0f5f0ad]
class androidx.recyclerview.widget.RecyclerView.Adapter--><rect fill="#FEFECE" filter="url(#f110gzwi8jeddz)" height="48.48" id="androidx.recyclerview.widget.RecyclerView.Adapter" style="stroke: #A80036; stroke-width: 1.5150000000000001;" width="74.74" x="427.23" y="171.9841"/><ellipse cx="442.38" cy="188.1441" fill="#ADD1B2" rx="11.11" ry="11.11" style="stroke: #A80036; stroke-width: 1.01;"/><path d="M444.4,184.6091 Q444.6052,184.1041 444.8419,183.8516 Q445.0786,183.5991 445.3469,183.5991 Q445.8203,183.5991 446.1202,183.8831 Q446.42,184.1672 446.42,184.83 L446.42,186.4081 Q446.42,187.0709 446.1359,187.355 Q445.8519,187.6391 445.41,187.6391 Q445.0155,187.6391 444.763,187.4655 Q444.5105,187.2919 444.4,186.8342 Q444.3527,186.5186 444.1791,186.345 Q443.8634,186.0136 443.2953,185.8163 Q442.7272,185.6191 442.1591,185.6191 Q441.4489,185.6191 440.8571,185.9031 Q440.2653,186.1872 439.8077,186.8184 Q439.35,187.4497 439.35,188.3177 L439.35,189.2488 Q439.35,190.2903 440.2022,190.9847 Q441.0544,191.6791 442.5694,191.6791 Q443.4689,191.6791 444.1002,191.4739 Q444.4631,191.3634 444.8734,191.0005 Q445.1417,190.7953 445.2838,190.7322 Q445.4258,190.6691 445.5994,190.6691 Q445.9308,190.6691 446.1754,190.9295 Q446.42,191.1898 446.42,191.5528 Q446.42,191.9 446.0728,192.3103 Q445.5678,192.91 444.763,193.2414 Q443.7056,193.6991 442.4116,193.6991 Q440.8966,193.6991 439.6814,193.0994 Q438.703,192.6259 438.0165,191.6002 Q437.33,190.5744 437.33,189.3592 L437.33,188.2545 Q437.33,186.992 437.9376,185.8873 Q438.5452,184.7827 439.6104,184.1909 Q440.6756,183.5991 441.875,183.5991 Q442.6009,183.5991 443.2322,183.8516 Q443.8634,184.1041 444.4,184.6091 Z "/><text fill="#000000" font-family="sans-serif" font-size="12.12" lengthAdjust="spacingAndGlyphs" textLength="42.42" x="456.52" y="193.1033">Adapter</text><line style="stroke: #A80036; stroke-width: 1.5150000000000001;" x1="428.24" x2="500.96" y1="204.3041" y2="204.3041"/><line style="stroke: #A80036; stroke-width: 1.5150000000000001;" x1="428.24" x2="500.96" y1="212.3841" y2="212.3841"/><!--MD5=[c3930f832584fe5a4f4b03a1d5d32ce8]
class com.mad.p03.np2020.routine.database.FocusDBHelper--><rect fill="#FEFECE" filter="url(#f110gzwi8jeddz)" height="48.48" id="com.mad.p03.np2020.routine.database.FocusDBHelper" style="stroke: #A80036; stroke-width: 1.5150000000000001;" width="121.2" x="820.12" y="171.9841"/><ellipse cx="835.27" cy="188.1441" fill="#ADD1B2" rx="11.11" ry="11.11" style="stroke: #A80036; stroke-width: 1.01;"/><path d="M837.29,184.6091 Q837.4952,184.1041 837.7319,183.8516 Q837.9686,183.5991 838.2369,183.5991 Q838.7103,183.5991 839.0102,183.8831 Q839.31,184.1672 839.31,184.83 L839.31,186.4081 Q839.31,187.0709 839.0259,187.355 Q838.7419,187.6391 838.3,187.6391 Q837.9055,187.6391 837.653,187.4655 Q837.4005,187.2919 837.29,186.8342 Q837.2427,186.5186 837.0691,186.345 Q836.7534,186.0136 836.1853,185.8163 Q835.6172,185.6191 835.0491,185.6191 Q834.3389,185.6191 833.7471,185.9031 Q833.1553,186.1872 832.6977,186.8184 Q832.24,187.4497 832.24,188.3177 L832.24,189.2488 Q832.24,190.2903 833.0922,190.9847 Q833.9444,191.6791 835.4594,191.6791 Q836.3589,191.6791 836.9902,191.4739 Q837.3531,191.3634 837.7634,191.0005 Q838.0317,190.7953 838.1738,190.7322 Q838.3158,190.6691 838.4894,190.6691 Q838.8208,190.6691 839.0654,190.9295 Q839.31,191.1898 839.31,191.5528 Q839.31,191.9 838.9628,192.3103 Q838.4578,192.91 837.653,193.2414 Q836.5956,193.6991 835.3016,193.6991 Q833.7866,193.6991 832.5714,193.0994 Q831.593,192.6259 830.9065,191.6002 Q830.22,190.5744 830.22,189.3592 L830.22,188.2545 Q830.22,186.992 830.8276,185.8873 Q831.4352,184.7827 832.5004,184.1909 Q833.5656,183.5991 834.765,183.5991 Q835.4909,183.5991 836.1222,183.8516 Q836.7534,184.1041 837.29,184.6091 Z "/><text fill="#000000" font-family="sans-serif" font-size="12.12" lengthAdjust="spacingAndGlyphs" textLength="88.88" x="849.41" y="193.1033">FocusDBHelper</text><line style="stroke: #A80036; stroke-width: 1.5150000000000001;" x1="821.13" x2="940.31" y1="204.3041" y2="204.3041"/><line style="stroke: #A80036; stroke-width: 1.5150000000000001;" x1="821.13" x2="940.31" y1="212.3841" y2="212.3841"/><!--MD5=[fcd4a1e0a20c6420e420691f3875dc02]
class com.mad.p03.np2020.routine.database.HabitDBHelper--><rect fill="#FEFECE" filter="url(#f110gzwi8jeddz)" height="48.48" id="com.mad.p03.np2020.routine.database.HabitDBHelper" style="stroke: #A80036; stroke-width: 1.5150000000000001;" width="116.15" x="668.115" y="171.9841"/><ellipse cx="683.265" cy="188.1441" fill="#ADD1B2" rx="11.11" ry="11.11" style="stroke: #A80036; stroke-width: 1.01;"/><path d="M685.285,184.6091 Q685.4902,184.1041 685.7269,183.8516 Q685.9636,183.5991 686.2319,183.5991 Q686.7053,183.5991 687.0052,183.8831 Q687.305,184.1672 687.305,184.83 L687.305,186.4081 Q687.305,187.0709 687.0209,187.355 Q686.7369,187.6391 686.295,187.6391 Q685.9005,187.6391 685.648,187.4655 Q685.3955,187.2919 685.285,186.8342 Q685.2377,186.5186 685.0641,186.345 Q684.7484,186.0136 684.1803,185.8163 Q683.6122,185.6191 683.0441,185.6191 Q682.3339,185.6191 681.7421,185.9031 Q681.1503,186.1872 680.6927,186.8184 Q680.235,187.4497 680.235,188.3177 L680.235,189.2488 Q680.235,190.2903 681.0872,190.9847 Q681.9394,191.6791 683.4544,191.6791 Q684.3539,191.6791 684.9852,191.4739 Q685.3481,191.3634 685.7584,191.0005 Q686.0267,190.7953 686.1688,190.7322 Q686.3108,190.6691 686.4844,190.6691 Q686.8158,190.6691 687.0604,190.9295 Q687.305,191.1898 687.305,191.5528 Q687.305,191.9 686.9578,192.3103 Q686.4528,192.91 685.648,193.2414 Q684.5906,193.6991 683.2966,193.6991 Q681.7816,193.6991 680.5664,193.0994 Q679.588,192.6259 678.9015,191.6002 Q678.215,190.5744 678.215,189.3592 L678.215,188.2545 Q678.215,186.992 678.8226,185.8873 Q679.4302,184.7827 680.4954,184.1909 Q681.5606,183.5991 682.76,183.5991 Q683.4859,183.5991 684.1172,183.8516 Q684.7484,184.1041 685.285,184.6091 Z "/><text fill="#000000" font-family="sans-serif" font-size="12.12" lengthAdjust="spacingAndGlyphs" textLength="83.83" x="697.405" y="193.1033">HabitDBHelper</text><line style="stroke: #A80036; stroke-width: 1.5150000000000001;" x1="669.125" x2="783.255" y1="204.3041" y2="204.3041"/><line style="stroke: #A80036; stroke-width: 1.5150000000000001;" x1="669.125" x2="783.255" y1="212.3841" y2="212.3841"/><!--MD5=[131225de6a87857cfbf8245ea6a40bb4]
class com.mad.p03.np2020.routine.Class.User--><rect fill="#FEFECE" filter="url(#f110gzwi8jeddz)" height="48.48" id="com.mad.p03.np2020.routine.Class.User" style="stroke: #A80036; stroke-width: 1.5150000000000001;" width="59.59" x="1082.215" y="171.9841"/><ellipse cx="1097.365" cy="188.1441" fill="#ADD1B2" rx="11.11" ry="11.11" style="stroke: #A80036; stroke-width: 1.01;"/><path d="M1099.385,184.6091 Q1099.5902,184.1041 1099.8269,183.8516 Q1100.0636,183.5991 1100.3319,183.5991 Q1100.8053,183.5991 1101.1052,183.8831 Q1101.405,184.1672 1101.405,184.83 L1101.405,186.4081 Q1101.405,187.0709 1101.1209,187.355 Q1100.8369,187.6391 1100.395,187.6391 Q1100.0005,187.6391 1099.748,187.4655 Q1099.4955,187.2919 1099.385,186.8342 Q1099.3377,186.5186 1099.1641,186.345 Q1098.8484,186.0136 1098.2803,185.8163 Q1097.7122,185.6191 1097.1441,185.6191 Q1096.4339,185.6191 1095.8421,185.9031 Q1095.2503,186.1872 1094.7927,186.8184 Q1094.335,187.4497 1094.335,188.3177 L1094.335,189.2488 Q1094.335,190.2903 1095.1872,190.9847 Q1096.0394,191.6791 1097.5544,191.6791 Q1098.4539,191.6791 1099.0852,191.4739 Q1099.4481,191.3634 1099.8584,191.0005 Q1100.1267,190.7953 1100.2688,190.7322 Q1100.4108,190.6691 1100.5844,190.6691 Q1100.9158,190.6691 1101.1604,190.9295 Q1101.405,191.1898 1101.405,191.5528 Q1101.405,191.9 1101.0578,192.3103 Q1100.5528,192.91 1099.748,193.2414 Q1098.6906,193.6991 1097.3966,193.6991 Q1095.8816,193.6991 1094.6664,193.0994 Q1093.688,192.6259 1093.0015,191.6002 Q1092.315,190.5744 1092.315,189.3592 L1092.315,188.2545 Q1092.315,186.992 1092.9226,185.8873 Q1093.5302,184.7827 1094.5954,184.1909 Q1095.6606,183.5991 1096.86,183.5991 Q1097.5859,183.5991 1098.2172,183.8516 Q1098.8484,184.1041 1099.385,184.6091 Z "/><text fill="#000000" font-family="sans-serif" font-size="12.12" lengthAdjust="spacingAndGlyphs" textLength="27.27" x="1111.505" y="193.1033">User</text><line style="stroke: #A80036; stroke-width: 1.5150000000000001;" x1="1083.225" x2="1140.795" y1="204.3041" y2="204.3041"/><line style="stroke: #A80036; stroke-width: 1.5150000000000001;" x1="1083.225" x2="1140.795" y1="212.3841" y2="212.3841"/><!--MD5=[07a78c422ed7fd6cfda4ef4447f2c7d6]
class com.mad.p03.np2020.routine.Class.Habit.HabitList--><rect fill="#FEFECE" filter="url(#f110gzwi8jeddz)" height="48.48" id="com.mad.p03.np2020.routine.Class.Habit.HabitList" style="stroke: #A80036; stroke-width: 1.5150000000000001;" width="81.81" x="1376.125" y="171.9841"/><ellipse cx="1391.275" cy="188.1441" fill="#ADD1B2" rx="11.11" ry="11.11" style="stroke: #A80036; stroke-width: 1.01;"/><path d="M1393.295,184.6091 Q1393.5002,184.1041 1393.7369,183.8516 Q1393.9736,183.5991 1394.2419,183.5991 Q1394.7153,183.5991 1395.0152,183.8831 Q1395.315,184.1672 1395.315,184.83 L1395.315,186.4081 Q1395.315,187.0709 1395.0309,187.355 Q1394.7469,187.6391 1394.305,187.6391 Q1393.9105,187.6391 1393.658,187.4655 Q1393.4055,187.2919 1393.295,186.8342 Q1393.2477,186.5186 1393.0741,186.345 Q1392.7584,186.0136 1392.1903,185.8163 Q1391.6222,185.6191 1391.0541,185.6191 Q1390.3439,185.6191 1389.7521,185.9031 Q1389.1603,186.1872 1388.7027,186.8184 Q1388.245,187.4497 1388.245,188.3177 L1388.245,189.2488 Q1388.245,190.2903 1389.0972,190.9847 Q1389.9494,191.6791 1391.4644,191.6791 Q1392.3639,191.6791 1392.9952,191.4739 Q1393.3581,191.3634 1393.7684,191.0005 Q1394.0367,190.7953 1394.1788,190.7322 Q1394.3208,190.6691 1394.4944,190.6691 Q1394.8258,190.6691 1395.0704,190.9295 Q1395.315,191.1898 1395.315,191.5528 Q1395.315,191.9 1394.9678,192.3103 Q1394.4628,192.91 1393.658,193.2414 Q1392.6006,193.6991 1391.3066,193.6991 Q1389.7916,193.6991 1388.5764,193.0994 Q1387.598,192.6259 1386.9115,191.6002 Q1386.225,190.5744 1386.225,189.3592 L1386.225,188.2545 Q1386.225,186.992 1386.8326,185.8873 Q1387.4402,184.7827 1388.5054,184.1909 Q1389.5706,183.5991 1390.77,183.5991 Q1391.4959,183.5991 1392.1272,183.8516 Q1392.7584,184.1041 1393.295,184.6091 Z "/><text fill="#000000" font-family="sans-serif" font-size="12.12" lengthAdjust="spacingAndGlyphs" textLength="49.49" x="1405.415" y="193.1033">HabitList</text><line style="stroke: #A80036; stroke-width: 1.5150000000000001;" x1="1377.135" x2="1456.925" y1="204.3041" y2="204.3041"/><line style="stroke: #A80036; stroke-width: 1.5150000000000001;" x1="1377.135" x2="1456.925" y1="212.3841" y2="212.3841"/><!--MD5=[5d9f465287fffd61c1fec7af112568f5]
class androidx.recyclerview.widget.ItemTouchHelper.Callback--><rect fill="#FEFECE" filter="url(#f110gzwi8jeddz)" height="48.48" id="androidx.recyclerview.widget.ItemTouchHelper.Callback" style="stroke: #A80036; stroke-width: 1.5150000000000001;" width="80.8" x="1726.09" y="171.9841"/><ellipse cx="1741.24" cy="188.1441" fill="#ADD1B2" rx="11.11" ry="11.11" style="stroke: #A80036; stroke-width: 1.01;"/><path d="M1743.26,184.6091 Q1743.4652,184.1041 1743.7019,183.8516 Q1743.9386,183.5991 1744.2069,183.5991 Q1744.6803,183.5991 1744.9802,183.8831 Q1745.28,184.1672 1745.28,184.83 L1745.28,186.4081 Q1745.28,187.0709 1744.9959,187.355 Q1744.7119,187.6391 1744.27,187.6391 Q1743.8755,187.6391 1743.623,187.4655 Q1743.3705,187.2919 1743.26,186.8342 Q1743.2127,186.5186 1743.0391,186.345 Q1742.7234,186.0136 1742.1553,185.8163 Q1741.5872,185.6191 1741.0191,185.6191 Q1740.3089,185.6191 1739.7171,185.9031 Q1739.1253,186.1872 1738.6677,186.8184 Q1738.21,187.4497 1738.21,188.3177 L1738.21,189.2488 Q1738.21,190.2903 1739.0622,190.9847 Q1739.9144,191.6791 1741.4294,191.6791 Q1742.3289,191.6791 1742.9602,191.4739 Q1743.3231,191.3634 1743.7334,191.0005 Q1744.0017,190.7953 1744.1438,190.7322 Q1744.2858,190.6691 1744.4594,190.6691 Q1744.7908,190.6691 1745.0354,190.9295 Q1745.28,191.1898 1745.28,191.5528 Q1745.28,191.9 1744.9328,192.3103 Q1744.4278,192.91 1743.623,193.2414 Q1742.5656,193.6991 1741.2716,193.6991 Q1739.7566,193.6991 1738.5414,193.0994 Q1737.563,192.6259 1736.8765,191.6002 Q1736.19,190.5744 1736.19,189.3592 L1736.19,188.2545 Q1736.19,186.992 1736.7976,185.8873 Q1737.4052,184.7827 1738.4704,184.1909 Q1739.5356,183.5991 1740.735,183.5991 Q1741.4609,183.5991 1742.0922,183.8516 Q1742.7234,184.1041 1743.26,184.6091 Z "/><text fill="#000000" font-family="sans-serif" font-size="12.12" lengthAdjust="spacingAndGlyphs" textLength="48.48" x="1755.38" y="193.1033">Callback</text><line style="stroke: #A80036; stroke-width: 1.5150000000000001;" x1="1727.1" x2="1805.88" y1="204.3041" y2="204.3041"/><line style="stroke: #A80036; stroke-width: 1.5150000000000001;" x1="1727.1" x2="1805.88" y1="212.3841" y2="212.3841"/><!--MD5=[88d91917ecbff880765ba52b9001bdde]
class android.widget.BaseAdapter--><rect fill="#FEFECE" filter="url(#f110gzwi8jeddz)" height="48.48" id="android.widget.BaseAdapter" style="stroke: #A80036; stroke-width: 1.5150000000000001;" width="104.03" x="1983.135" y="171.9841"/><ellipse cx="1998.285" cy="188.1441" fill="#ADD1B2" rx="11.11" ry="11.11" style="stroke: #A80036; stroke-width: 1.01;"/><path d="M2000.305,184.6091 Q2000.5102,184.1041 2000.7469,183.8516 Q2000.9836,183.5991 2001.2519,183.5991 Q2001.7253,183.5991 2002.0252,183.8831 Q2002.325,184.1672 2002.325,184.83 L2002.325,186.4081 Q2002.325,187.0709 2002.0409,187.355 Q2001.7569,187.6391 2001.315,187.6391 Q2000.9205,187.6391 2000.668,187.4655 Q2000.4155,187.2919 2000.305,186.8342 Q2000.2577,186.5186 2000.0841,186.345 Q1999.7684,186.0136 1999.2003,185.8163 Q1998.6322,185.6191 1998.0641,185.6191 Q1997.3539,185.6191 1996.7621,185.9031 Q1996.1703,186.1872 1995.7127,186.8184 Q1995.255,187.4497 1995.255,188.3177 L1995.255,189.2488 Q1995.255,190.2903 1996.1072,190.9847 Q1996.9594,191.6791 1998.4744,191.6791 Q1999.3739,191.6791 2000.0052,191.4739 Q2000.3681,191.3634 2000.7784,191.0005 Q2001.0467,190.7953 2001.1888,190.7322 Q2001.3308,190.6691 2001.5044,190.6691 Q2001.8358,190.6691 2002.0804,190.9295 Q2002.325,191.1898 2002.325,191.5528 Q2002.325,191.9 2001.9778,192.3103 Q2001.4728,192.91 2000.668,193.2414 Q1999.6106,193.6991 1998.3166,193.6991 Q1996.8016,193.6991 1995.5864,193.0994 Q1994.608,192.6259 1993.9215,191.6002 Q1993.235,190.5744 1993.235,189.3592 L1993.235,188.2545 Q1993.235,186.992 1993.8426,185.8873 Q1994.4502,184.7827 1995.5154,184.1909 Q1996.5806,183.5991 1997.78,183.5991 Q1998.5059,183.5991 1999.1372,183.8516 Q1999.7684,184.1041 2000.305,184.6091 Z "/><text fill="#000000" font-family="sans-serif" font-size="12.12" lengthAdjust="spacingAndGlyphs" textLength="71.71" x="2012.425" y="193.1033">BaseAdapter</text><line style="stroke: #A80036; stroke-width: 1.5150000000000001;" x1="1984.145" x2="2086.155" y1="204.3041" y2="204.3041"/><line style="stroke: #A80036; stroke-width: 1.5150000000000001;" x1="1984.145" x2="2086.155" y1="212.3841" y2="212.3841"/><!--MD5=[de48c5a3243a166c06e75c1d896ca345]
@startuml

title __ADAPTER's Class Diagram__\n

  namespace com.mad.p03.np2020.routine {
    namespace Adapter {
      class com.mad.p03.np2020.routine.Adapter.FocusAdapter {
          - TAG : String
          - context : Context
          - focusList : List<Focus>
          + FocusAdapter()
          + deleteDataFirebase()
          + getItemCount()
          + getItems()
          + notifiyItemChange()
          + onBindViewHolder()
          + onCreateViewHolder()
          + remove()
          + serializeToJson()
          - eventListener()
      }
    }
  }
  

  namespace com.mad.p03.np2020.routine {
    namespace Adapter {
      class com.mad.p03.np2020.routine.Adapter.HabitAdapter {
          {static} ~ TAG : String
          - UID : String
          - c : Context
          {static} - view : View
          + HabitAdapter()
          + getItemCount()
          + habit_serializeToJson()
          + onBindViewHolder()
          + onCreateViewHolder()
          + setOnItemClickListener()
          + writeHabit_Firebase()
      }
    }
  }
  

  namespace com.mad.p03.np2020.routine {
    namespace Adapter {
      class com.mad.p03.np2020.routine.Adapter.HabitGroupAdapter {
          + _habitGroupList : ArrayList<HabitGroup>
          - c : Context
          {static} - view : View
          + HabitGroupAdapter()
          + getItemCount()
          + onBindViewHolder()
          + onCreateViewHolder()
          + setOnItemClickListener()
      }
    }
  }
  

  namespace com.mad.p03.np2020.routine {
    namespace Adapter {
      interface com.mad.p03.np2020.routine.Adapter.HomeItemTouchHelperAdapter {
          {abstract} + onItemMove()
          {abstract} + onItemSwiped()
      }
    }
  }
  

  namespace com.mad.p03.np2020.routine {
    namespace Adapter {
      class com.mad.p03.np2020.routine.Adapter.HomePageAdapter {
          - TAG : String
          - mContext : Context
          - mItemTouchHelper : ItemTouchHelper
          - mOwner : LifecycleOwner
          - mSectionList : List<Section>
          + HomePageAdapter()
          + addItem()
          + getItemCount()
          + getSection()
          + onBindViewHolder()
          + onCreateViewHolder()
          + onItemMove()
          + onItemSwiped()
          + onSectionClick()
          + removeItem()
          + setTouchHelper()
          - confirmDelete()
      }
    }
  }
  

  namespace com.mad.p03.np2020.routine {
    namespace Adapter {
      class com.mad.p03.np2020.routine.Adapter.MyHomeItemTouchHelper {
          + MyHomeItemTouchHelper()
          + clearView()
          + getMovementFlags()
          + isItemViewSwipeEnabled()
          + isLongPressDragEnabled()
          + onMove()
          + onSelectedChanged()
          + onSwiped()
      }
    }
  }
  

  namespace com.mad.p03.np2020.routine {
    namespace Adapter {
      class com.mad.p03.np2020.routine.Adapter.MySpinnerColorAdapter {
          - mColors : Integer[]
          + MySpinnerColorAdapter()
          + getCount()
          + getItem()
          + getItemId()
          + getView()
      }
    }
  }
  

  namespace com.mad.p03.np2020.routine {
    namespace Adapter {
      class com.mad.p03.np2020.routine.Adapter.MySpinnerIconsAdapter {
          - mIcons : Integer[]
          + MySpinnerIconsAdapter()
          + getCount()
          + getItem()
          + getItemId()
          + getView()
      }
    }
  }
  

  namespace com.mad.p03.np2020.routine {
    namespace Adapter {
      class com.mad.p03.np2020.routine.Adapter.MyTaskTouchHelper {
          + MyTaskTouchHelper()
          + clearView()
          + getMovementFlags()
          + isItemViewSwipeEnabled()
          + isLongPressDragEnabled()
          + onMove()
          + onSelectedChanged()
          + onSwiped()
      }
    }
  }
  

  namespace com.mad.p03.np2020.routine {
    namespace Adapter {
      interface com.mad.p03.np2020.routine.Adapter.OnItemClickListener {
          {abstract} + onItemClick()
      }
    }
  }
  

  namespace com.mad.p03.np2020.routine {
    namespace Adapter {
      interface com.mad.p03.np2020.routine.Adapter.OnSectionListener {
          {abstract} + onSectionClick()
      }
    }
  }
  

  namespace com.mad.p03.np2020.routine {
    namespace Adapter {
      class com.mad.p03.np2020.routine.Adapter.TaskAdapter {
          - TAG : String
          - mContext : Context
          - mItemTouchHelper : ItemTouchHelper
          - mOwner : LifecycleOwner
          - mTaskList : List<Task>
          + TaskAdapter()
          + addItem()
          + getItemCount()
          + onBindViewHolder()
          + onCreateViewHolder()
          + onItemClicked()
          + onItemMove()
          + onItemSwiped()
          + removeTask()
          + setMyTaskTouchHelper()
      }
    }
  }
  

  namespace com.mad.p03.np2020.routine {
    namespace Adapter {
      interface com.mad.p03.np2020.routine.Adapter.TaskTouchHelperAdapter {
          {abstract} + onItemClicked()
          {abstract} + onItemMove()
          {abstract} + onItemSwiped()
      }
    }
  }
  

  com.mad.p03.np2020.routine.Adapter.FocusAdapter -up-|> androidx.recyclerview.widget.RecyclerView.Adapter
  com.mad.p03.np2020.routine.Adapter.FocusAdapter o- - com.mad.p03.np2020.routine.database.FocusDBHelper : focusDBHelper
  com.mad.p03.np2020.routine.Adapter.FocusAdapter o- - com.mad.p03.np2020.routine.Class.User : user
  com.mad.p03.np2020.routine.Adapter.HabitAdapter -up-|> androidx.recyclerview.widget.RecyclerView.Adapter
  com.mad.p03.np2020.routine.Adapter.HabitAdapter o- - com.mad.p03.np2020.routine.Class.Habit.HabitList : _habitList
  com.mad.p03.np2020.routine.Adapter.HabitAdapter o- - com.mad.p03.np2020.routine.database.HabitDBHelper : dbHandler
  com.mad.p03.np2020.routine.Adapter.HabitAdapter o- - com.mad.p03.np2020.routine.Adapter.OnItemClickListener : mListener
  com.mad.p03.np2020.routine.Adapter.HabitGroupAdapter -up-|> androidx.recyclerview.widget.RecyclerView.Adapter
  com.mad.p03.np2020.routine.Adapter.HabitGroupAdapter o- - com.mad.p03.np2020.routine.Adapter.OnItemClickListener : mListener
  com.mad.p03.np2020.routine.Adapter.HomePageAdapter .up.|> com.mad.p03.np2020.routine.Adapter.HomeItemTouchHelperAdapter
  com.mad.p03.np2020.routine.Adapter.HomePageAdapter .up.|> com.mad.p03.np2020.routine.Adapter.OnSectionListener
  com.mad.p03.np2020.routine.Adapter.HomePageAdapter -up-|> androidx.recyclerview.widget.RecyclerView.Adapter
  com.mad.p03.np2020.routine.Adapter.MyHomeItemTouchHelper -up-|> androidx.recyclerview.widget.ItemTouchHelper.Callback
  com.mad.p03.np2020.routine.Adapter.MyHomeItemTouchHelper o- - com.mad.p03.np2020.routine.Adapter.HomeItemTouchHelperAdapter : mAdapter
  com.mad.p03.np2020.routine.Adapter.MySpinnerColorAdapter -up-|> android.widget.BaseAdapter
  com.mad.p03.np2020.routine.Adapter.MySpinnerIconsAdapter -up-|> android.widget.BaseAdapter
  com.mad.p03.np2020.routine.Adapter.MyTaskTouchHelper -up-|> androidx.recyclerview.widget.ItemTouchHelper.Callback
  com.mad.p03.np2020.routine.Adapter.MyTaskTouchHelper o- - com.mad.p03.np2020.routine.Adapter.TaskTouchHelperAdapter : mTaskTouchHelperAdapter
  com.mad.p03.np2020.routine.Adapter.TaskAdapter .up.|> com.mad.p03.np2020.routine.Adapter.TaskTouchHelperAdapter
  com.mad.p03.np2020.routine.Adapter.TaskAdapter -up-|> androidx.recyclerview.widget.RecyclerView.Adapter


@enduml

PlantUML version 1.2020.03beta6(Unknown compile time)
(GPL source distribution)
Java Runtime: OpenJDK Runtime Environment
JVM: OpenJDK 64-Bit Server VM
Java Version: 1.8.0_212-release-1586-b04
Operating System: Windows 10
Default Encoding: Cp1252
Language: en
Country: SG
--></g></svg>