<?xml version="1.0" encoding="UTF-8" standalone="no"?><svg xmlns="http://www.w3.org/2000/svg" xmlns:xlink="http://www.w3.org/1999/xlink" contentScriptType="application/ecmascript" contentStyleType="text/css" height="405.01px" preserveAspectRatio="none" style="width:832px;height:405px;" version="1.1" viewBox="0 0 832 405" width="832.24px" zoomAndPan="magnify"><defs><filter height="300%" id="fwn4qkddkgqho" width="300%" x="-1" y="-1"><feGaussianBlur result="blurOut" stdDeviation="2.02"/><feColorMatrix in="blurOut" result="blurOut2" type="matrix" values="0 0 0 0 0 0 0 0 0 0 0 0 0 0 0 0 0 0 .4 0"/><feOffset dx="4.04" dy="4.04" in="blurOut2" result="blurOut3"/><feBlend in="SourceGraphic" in2="blurOut3" mode="normal"/></filter></defs><g><text fill="#000000" font-family="sans-serif" font-size="18.18" lengthAdjust="spacingAndGlyphs" text-decoration="underline" textLength="264.62" x="289.87" y="18.8724">BACKGROUND's Class Diagram</text><text fill="#000000" font-family="sans-serif" font-size="18.18" lengthAdjust="spacingAndGlyphs" textLength="0" x="424.705" y="41.7394"/><!--MD5=[c0528f8a8fd1d55ed309f20867289e3b]
cluster com.mad.p03.np2020.routine--><polygon fill="#FFFFFF" filter="url(#fwn4qkddkgqho)" points="22.22,195.2141,230.28,195.2141,237.35,219.0595,242.4,219.0595,242.4,393.1741,22.22,393.1741,22.22,195.2141" style="stroke: #000000; stroke-width: 1.5150000000000001;"/><line style="stroke: #000000; stroke-width: 1.5150000000000001;" x1="22.22" x2="237.35" y1="219.0595" y2="219.0595"/><text fill="#000000" font-family="sans-serif" font-size="14.14" font-weight="bold" lengthAdjust="spacingAndGlyphs" textLength="202" x="26.26" y="211.9126">com.mad.p03.np2020.routine</text><!--MD5=[046da93e8bd69ab0bcbfd41fadd858f6]
cluster com.mad.p03.np2020.routine.background--><polygon fill="#FFFFFF" filter="url(#fwn4qkddkgqho)" points="46.46,239.6541,137.36,239.6541,144.43,263.4995,218.16,263.4995,218.16,368.9341,46.46,368.9341,46.46,239.6541" style="stroke: #000000; stroke-width: 1.5150000000000001;"/><line style="stroke: #000000; stroke-width: 1.5150000000000001;" x1="46.46" x2="144.43" y1="263.4995" y2="263.4995"/><text fill="#000000" font-family="sans-serif" font-size="14.14" font-weight="bold" lengthAdjust="spacingAndGlyphs" textLength="84.84" x="50.5" y="256.3526">background</text><!--MD5=[2211f6aefc6d3e8465659e1ee08dff72]
cluster androidx.work--><polygon fill="#FFFFFF" filter="url(#fwn4qkddkgqho)" points="73.73,69.9741,180.79,69.9741,187.86,93.8195,190.89,93.8195,190.89,170.9741,73.73,170.9741,73.73,69.9741" style="stroke: #000000; stroke-width: 1.5150000000000001;"/><line style="stroke: #000000; stroke-width: 1.5150000000000001;" x1="73.73" x2="187.86" y1="93.8195" y2="93.8195"/><text fill="#000000" font-family="sans-serif" font-size="14.14" font-weight="bold" lengthAdjust="spacingAndGlyphs" textLength="101" x="77.77" y="86.6726">androidx.work</text><!--MD5=[8460c71841e19a400225ccf2988d59cd]
cluster com.google.firebase.messaging--><polygon fill="#FFFFFF" filter="url(#fwn4qkddkgqho)" points="215.13,69.9741,447.43,69.9741,454.5,93.8195,457.53,93.8195,457.53,170.9741,215.13,170.9741,215.13,69.9741" style="stroke: #000000; stroke-width: 1.5150000000000001;"/><line style="stroke: #000000; stroke-width: 1.5150000000000001;" x1="215.13" x2="454.5" y1="93.8195" y2="93.8195"/><text fill="#000000" font-family="sans-serif" font-size="14.14" font-weight="bold" lengthAdjust="spacingAndGlyphs" textLength="226.24" x="219.17" y="86.6726">com.google.firebase.messaging</text><!--MD5=[6ad32808f928386d4e4fd337af0e8356]
cluster com.mad.p03.np2020.routine.Class--><polygon fill="#FFFFFF" filter="url(#fwn4qkddkgqho)" points="481.77,69.9741,732.25,69.9741,739.32,93.8195,810.02,93.8195,810.02,170.9741,481.77,170.9741,481.77,69.9741" style="stroke: #000000; stroke-width: 1.5150000000000001;"/><line style="stroke: #000000; stroke-width: 1.5150000000000001;" x1="481.77" x2="739.32" y1="93.8195" y2="93.8195"/><text fill="#000000" font-family="sans-serif" font-size="14.14" font-weight="bold" lengthAdjust="spacingAndGlyphs" textLength="244.42" x="485.81" y="86.6726">com.mad.p03.np2020.routine.Class</text><!--MD5=[a0df01159ce1b55e30b34d6e2b83cc3b]
class com.mad.p03.np2020.routine.background.UploadTaskWorker--><rect fill="#FEFECE" filter="url(#fwn4qkddkgqho)" height="76.4286" id="com.mad.p03.np2020.routine.background.UploadTaskWorker" style="stroke: #A80036; stroke-width: 1.5150000000000001;" width="139.38" x="62.62" y="276.0141"/><ellipse cx="77.77" cy="292.1741" fill="#ADD1B2" rx="11.11" ry="11.11" style="stroke: #A80036; stroke-width: 1.01;"/><path d="M79.79,288.6391 Q79.9952,288.1341 80.2319,287.8816 Q80.4686,287.6291 80.7369,287.6291 Q81.2103,287.6291 81.5102,287.9131 Q81.81,288.1972 81.81,288.86 L81.81,290.4381 Q81.81,291.1009 81.5259,291.385 Q81.2419,291.6691 80.8,291.6691 Q80.4055,291.6691 80.153,291.4955 Q79.9005,291.3219 79.79,290.8642 Q79.7427,290.5486 79.5691,290.375 Q79.2534,290.0436 78.6853,289.8463 Q78.1172,289.6491 77.5491,289.6491 Q76.8389,289.6491 76.2471,289.9331 Q75.6553,290.2172 75.1977,290.8484 Q74.74,291.4797 74.74,292.3477 L74.74,293.2788 Q74.74,294.3203 75.5922,295.0147 Q76.4444,295.7091 77.9594,295.7091 Q78.8589,295.7091 79.4902,295.5039 Q79.8531,295.3934 80.2634,295.0305 Q80.5317,294.8253 80.6738,294.7622 Q80.8158,294.6991 80.9894,294.6991 Q81.3208,294.6991 81.5654,294.9595 Q81.81,295.2198 81.81,295.5828 Q81.81,295.93 81.4628,296.3403 Q80.9578,296.94 80.153,297.2714 Q79.0956,297.7291 77.8016,297.7291 Q76.2866,297.7291 75.0714,297.1294 Q74.093,296.6559 73.4065,295.6302 Q72.72,294.6044 72.72,293.3892 L72.72,292.2845 Q72.72,291.022 73.3276,289.9173 Q73.9352,288.8127 75.0004,288.2209 Q76.0656,287.6291 77.265,287.6291 Q77.9909,287.6291 78.6222,287.8816 Q79.2534,288.1341 79.79,288.6391 Z "/><text fill="#000000" font-family="sans-serif" font-size="12.12" lengthAdjust="spacingAndGlyphs" textLength="107.06" x="91.91" y="297.1333">UploadTaskWorker</text><line style="stroke: #A80036; stroke-width: 1.5150000000000001;" x1="63.63" x2="200.99" y1="308.3341" y2="308.3341"/><line style="stroke: #A80036; stroke-width: 1.5150000000000001;" x1="63.63" x2="200.99" y1="316.4141" y2="316.4141"/><ellipse cx="73.73" cy="327.5241" fill="#84BE84" rx="3.03" ry="3.03" style="stroke: #038048; stroke-width: 1.01;"/><text fill="#000000" font-family="sans-serif" font-size="11.11" lengthAdjust="spacingAndGlyphs" textLength="99.99" x="82.82" y="331.9872">UploadTaskWorker()</text><ellipse cx="73.73" cy="341.4984" fill="#84BE84" rx="3.03" ry="3.03" style="stroke: #038048; stroke-width: 1.01;"/><text fill="#000000" font-family="sans-serif" font-size="11.11" lengthAdjust="spacingAndGlyphs" textLength="45.45" x="82.82" y="345.9615">doWork()</text><!--MD5=[af7f8c6e0a89c182d99c34deb7861100]
class androidx.work.Worker--><rect fill="#FEFECE" filter="url(#fwn4qkddkgqho)" height="48.48" id="androidx.work.Worker" style="stroke: #A80036; stroke-width: 1.5150000000000001;" width="71.71" x="96.455" y="106.3341"/><ellipse cx="111.605" cy="122.4941" fill="#ADD1B2" rx="11.11" ry="11.11" style="stroke: #A80036; stroke-width: 1.01;"/><path d="M113.625,118.9591 Q113.8302,118.4541 114.0669,118.2016 Q114.3036,117.9491 114.5719,117.9491 Q115.0453,117.9491 115.3452,118.2331 Q115.645,118.5172 115.645,119.18 L115.645,120.7581 Q115.645,121.4209 115.3609,121.705 Q115.0769,121.9891 114.635,121.9891 Q114.2405,121.9891 113.988,121.8155 Q113.7355,121.6419 113.625,121.1842 Q113.5777,120.8686 113.4041,120.695 Q113.0884,120.3636 112.5203,120.1663 Q111.9522,119.9691 111.3841,119.9691 Q110.6739,119.9691 110.0821,120.2531 Q109.4903,120.5372 109.0327,121.1684 Q108.575,121.7997 108.575,122.6677 L108.575,123.5988 Q108.575,124.6403 109.4272,125.3347 Q110.2794,126.0291 111.7944,126.0291 Q112.6939,126.0291 113.3252,125.8239 Q113.6881,125.7134 114.0984,125.3505 Q114.3667,125.1453 114.5088,125.0822 Q114.6508,125.0191 114.8244,125.0191 Q115.1558,125.0191 115.4004,125.2795 Q115.645,125.5398 115.645,125.9028 Q115.645,126.25 115.2978,126.6603 Q114.7928,127.26 113.988,127.5914 Q112.9306,128.0491 111.6366,128.0491 Q110.1216,128.0491 108.9064,127.4494 Q107.928,126.9759 107.2415,125.9502 Q106.555,124.9244 106.555,123.7092 L106.555,122.6045 Q106.555,121.342 107.1626,120.2373 Q107.7702,119.1327 108.8354,118.5409 Q109.9006,117.9491 111.1,117.9491 Q111.8259,117.9491 112.4572,118.2016 Q113.0884,118.4541 113.625,118.9591 Z "/><text fill="#000000" font-family="sans-serif" font-size="12.12" lengthAdjust="spacingAndGlyphs" textLength="39.39" x="125.745" y="127.4533">Worker</text><line style="stroke: #A80036; stroke-width: 1.5150000000000001;" x1="97.465" x2="167.155" y1="138.6541" y2="138.6541"/><line style="stroke: #A80036; stroke-width: 1.5150000000000001;" x1="97.465" x2="167.155" y1="146.7341" y2="146.7341"/><!--MD5=[3bda40d189aa7349d5a9d05faebe919f]
class com.google.firebase.messaging.FirebaseMessagingService--><rect fill="#FEFECE" filter="url(#fwn4qkddkgqho)" height="48.48" id="com.google.firebase.messaging.FirebaseMessagingService" style="stroke: #A80036; stroke-width: 1.5150000000000001;" width="183.82" x="244.42" y="106.3341"/><ellipse cx="259.57" cy="122.4941" fill="#ADD1B2" rx="11.11" ry="11.11" style="stroke: #A80036; stroke-width: 1.01;"/><path d="M261.59,118.9591 Q261.7952,118.4541 262.0319,118.2016 Q262.2686,117.9491 262.5369,117.9491 Q263.0103,117.9491 263.3102,118.2331 Q263.61,118.5172 263.61,119.18 L263.61,120.7581 Q263.61,121.4209 263.3259,121.705 Q263.0419,121.9891 262.6,121.9891 Q262.2055,121.9891 261.953,121.8155 Q261.7005,121.6419 261.59,121.1842 Q261.5427,120.8686 261.3691,120.695 Q261.0534,120.3636 260.4853,120.1663 Q259.9172,119.9691 259.3491,119.9691 Q258.6389,119.9691 258.0471,120.2531 Q257.4553,120.5372 256.9977,121.1684 Q256.54,121.7997 256.54,122.6677 L256.54,123.5988 Q256.54,124.6403 257.3922,125.3347 Q258.2444,126.0291 259.7594,126.0291 Q260.6589,126.0291 261.2902,125.8239 Q261.6531,125.7134 262.0634,125.3505 Q262.3317,125.1453 262.4738,125.0822 Q262.6158,125.0191 262.7894,125.0191 Q263.1208,125.0191 263.3654,125.2795 Q263.61,125.5398 263.61,125.9028 Q263.61,126.25 263.2628,126.6603 Q262.7578,127.26 261.953,127.5914 Q260.8956,128.0491 259.6016,128.0491 Q258.0866,128.0491 256.8714,127.4494 Q255.893,126.9759 255.2065,125.9502 Q254.52,124.9244 254.52,123.7092 L254.52,122.6045 Q254.52,121.342 255.1276,120.2373 Q255.7352,119.1327 256.8004,118.5409 Q257.8656,117.9491 259.065,117.9491 Q259.7909,117.9491 260.4222,118.2016 Q261.0534,118.4541 261.59,118.9591 Z "/><text fill="#000000" font-family="sans-serif" font-size="12.12" lengthAdjust="spacingAndGlyphs" textLength="151.5" x="273.71" y="127.4533">FirebaseMessagingService</text><line style="stroke: #A80036; stroke-width: 1.5150000000000001;" x1="245.43" x2="427.23" y1="138.6541" y2="138.6541"/><line style="stroke: #A80036; stroke-width: 1.5150000000000001;" x1="245.43" x2="427.23" y1="146.7341" y2="146.7341"/><!--MD5=[c0195e677db339fa7a2f8bad68918225]
class com.mad.p03.np2020.routine.Class.Focus--><rect fill="#FEFECE" filter="url(#fwn4qkddkgqho)" height="48.48" id="com.mad.p03.np2020.routine.Class.Focus" style="stroke: #A80036; stroke-width: 1.5150000000000001;" width="66.66" x="727.2" y="106.3341"/><ellipse cx="742.35" cy="122.4941" fill="#ADD1B2" rx="11.11" ry="11.11" style="stroke: #A80036; stroke-width: 1.01;"/><path d="M744.37,118.9591 Q744.5752,118.4541 744.8119,118.2016 Q745.0486,117.9491 745.3169,117.9491 Q745.7903,117.9491 746.0902,118.2331 Q746.39,118.5172 746.39,119.18 L746.39,120.7581 Q746.39,121.4209 746.1059,121.705 Q745.8219,121.9891 745.38,121.9891 Q744.9855,121.9891 744.733,121.8155 Q744.4805,121.6419 744.37,121.1842 Q744.3227,120.8686 744.1491,120.695 Q743.8334,120.3636 743.2653,120.1663 Q742.6972,119.9691 742.1291,119.9691 Q741.4189,119.9691 740.8271,120.2531 Q740.2353,120.5372 739.7777,121.1684 Q739.32,121.7997 739.32,122.6677 L739.32,123.5988 Q739.32,124.6403 740.1722,125.3347 Q741.0244,126.0291 742.5394,126.0291 Q743.4389,126.0291 744.0702,125.8239 Q744.4331,125.7134 744.8434,125.3505 Q745.1117,125.1453 745.2538,125.0822 Q745.3958,125.0191 745.5694,125.0191 Q745.9008,125.0191 746.1454,125.2795 Q746.39,125.5398 746.39,125.9028 Q746.39,126.25 746.0428,126.6603 Q745.5378,127.26 744.733,127.5914 Q743.6756,128.0491 742.3816,128.0491 Q740.8666,128.0491 739.6514,127.4494 Q738.673,126.9759 737.9865,125.9502 Q737.3,124.9244 737.3,123.7092 L737.3,122.6045 Q737.3,121.342 737.9076,120.2373 Q738.5152,119.1327 739.5804,118.5409 Q740.6456,117.9491 741.845,117.9491 Q742.5709,117.9491 743.2022,118.2016 Q743.8334,118.4541 744.37,118.9591 Z "/><text fill="#000000" font-family="sans-serif" font-size="12.12" lengthAdjust="spacingAndGlyphs" textLength="34.34" x="756.49" y="127.4533">Focus</text><line style="stroke: #A80036; stroke-width: 1.5150000000000001;" x1="728.21" x2="792.85" y1="138.6541" y2="138.6541"/><line style="stroke: #A80036; stroke-width: 1.5150000000000001;" x1="728.21" x2="792.85" y1="146.7341" y2="146.7341"/><!--MD5=[ee367e616ff3266e021a347943aca867]
class com.mad.p03.np2020.routine.Class.HabitGroup--><rect fill="#FEFECE" filter="url(#fwn4qkddkgqho)" height="48.48" id="com.mad.p03.np2020.routine.Class.HabitGroup" style="stroke: #A80036; stroke-width: 1.5150000000000001;" width="95.95" x="595.395" y="106.3341"/><ellipse cx="610.545" cy="122.4941" fill="#ADD1B2" rx="11.11" ry="11.11" style="stroke: #A80036; stroke-width: 1.01;"/><path d="M612.565,118.9591 Q612.7702,118.4541 613.0069,118.2016 Q613.2436,117.9491 613.5119,117.9491 Q613.9853,117.9491 614.2852,118.2331 Q614.585,118.5172 614.585,119.18 L614.585,120.7581 Q614.585,121.4209 614.3009,121.705 Q614.0169,121.9891 613.575,121.9891 Q613.1805,121.9891 612.928,121.8155 Q612.6755,121.6419 612.565,121.1842 Q612.5177,120.8686 612.3441,120.695 Q612.0284,120.3636 611.4603,120.1663 Q610.8922,119.9691 610.3241,119.9691 Q609.6139,119.9691 609.0221,120.2531 Q608.4303,120.5372 607.9727,121.1684 Q607.515,121.7997 607.515,122.6677 L607.515,123.5988 Q607.515,124.6403 608.3672,125.3347 Q609.2194,126.0291 610.7344,126.0291 Q611.6339,126.0291 612.2652,125.8239 Q612.6281,125.7134 613.0384,125.3505 Q613.3067,125.1453 613.4488,125.0822 Q613.5908,125.0191 613.7644,125.0191 Q614.0958,125.0191 614.3404,125.2795 Q614.585,125.5398 614.585,125.9028 Q614.585,126.25 614.2378,126.6603 Q613.7328,127.26 612.928,127.5914 Q611.8706,128.0491 610.5766,128.0491 Q609.0616,128.0491 607.8464,127.4494 Q606.868,126.9759 606.1815,125.9502 Q605.495,124.9244 605.495,123.7092 L605.495,122.6045 Q605.495,121.342 606.1026,120.2373 Q606.7102,119.1327 607.7754,118.5409 Q608.8406,117.9491 610.04,117.9491 Q610.7659,117.9491 611.3972,118.2016 Q612.0284,118.4541 612.565,118.9591 Z "/><text fill="#000000" font-family="sans-serif" font-size="12.12" lengthAdjust="spacingAndGlyphs" textLength="63.63" x="624.685" y="127.4533">HabitGroup</text><line style="stroke: #A80036; stroke-width: 1.5150000000000001;" x1="596.405" x2="690.335" y1="138.6541" y2="138.6541"/><line style="stroke: #A80036; stroke-width: 1.5150000000000001;" x1="596.405" x2="690.335" y1="146.7341" y2="146.7341"/><!--MD5=[696267f6d0aafa1f4942a9aad84be8a7]
class com.mad.p03.np2020.routine.Class.Habit--><rect fill="#FEFECE" filter="url(#fwn4qkddkgqho)" height="48.48" id="com.mad.p03.np2020.routine.Class.Habit" style="stroke: #A80036; stroke-width: 1.5150000000000001;" width="61.61" x="498.435" y="106.3341"/><ellipse cx="513.585" cy="122.4941" fill="#ADD1B2" rx="11.11" ry="11.11" style="stroke: #A80036; stroke-width: 1.01;"/><path d="M515.605,118.9591 Q515.8102,118.4541 516.0469,118.2016 Q516.2836,117.9491 516.5519,117.9491 Q517.0253,117.9491 517.3252,118.2331 Q517.625,118.5172 517.625,119.18 L517.625,120.7581 Q517.625,121.4209 517.3409,121.705 Q517.0569,121.9891 516.615,121.9891 Q516.2205,121.9891 515.968,121.8155 Q515.7155,121.6419 515.605,121.1842 Q515.5577,120.8686 515.3841,120.695 Q515.0684,120.3636 514.5003,120.1663 Q513.9322,119.9691 513.3641,119.9691 Q512.6539,119.9691 512.0621,120.2531 Q511.4703,120.5372 511.0127,121.1684 Q510.555,121.7997 510.555,122.6677 L510.555,123.5988 Q510.555,124.6403 511.4072,125.3347 Q512.2594,126.0291 513.7744,126.0291 Q514.6739,126.0291 515.3052,125.8239 Q515.6681,125.7134 516.0784,125.3505 Q516.3467,125.1453 516.4888,125.0822 Q516.6308,125.0191 516.8044,125.0191 Q517.1358,125.0191 517.3804,125.2795 Q517.625,125.5398 517.625,125.9028 Q517.625,126.25 517.2778,126.6603 Q516.7728,127.26 515.968,127.5914 Q514.9106,128.0491 513.6166,128.0491 Q512.1016,128.0491 510.8864,127.4494 Q509.908,126.9759 509.2215,125.9502 Q508.535,124.9244 508.535,123.7092 L508.535,122.6045 Q508.535,121.342 509.1426,120.2373 Q509.7502,119.1327 510.8154,118.5409 Q511.8806,117.9491 513.08,117.9491 Q513.8059,117.9491 514.4372,118.2016 Q515.0684,118.4541 515.605,118.9591 Z "/><text fill="#000000" font-family="sans-serif" font-size="12.12" lengthAdjust="spacingAndGlyphs" textLength="29.29" x="527.725" y="127.4533">Habit</text><line style="stroke: #A80036; stroke-width: 1.5150000000000001;" x1="499.445" x2="559.035" y1="138.6541" y2="138.6541"/><line style="stroke: #A80036; stroke-width: 1.5150000000000001;" x1="499.445" x2="559.035" y1="146.7341" y2="146.7341"/><!--MD5=[043c0f7a9a052cd45737a6713c73d389]
reverse link androidx.work.Worker to com.mad.p03.np2020.routine.background.UploadTaskWorker--><path d="M132.31,175.2736 C132.31,205.9776 132.31,246.6301 132.31,275.8696 " fill="none" id="androidx.work.Worker&lt;-com.mad.p03.np2020.routine.background.UploadTaskWorker" style="stroke: #A80036; stroke-width: 1.01;"/><polygon fill="none" points="125.24,175.1787,132.31,154.9787,139.38,175.1787,125.24,175.1787" style="stroke: #A80036; stroke-width: 1.01;"/><!--MD5=[38c456b54e5189ea5769b163823e8e76]
@startuml

title __BACKGROUND's Class Diagram__\n

  namespace com.mad.p03.np2020.routine {
    namespace background {
      class com.mad.p03.np2020.routine.background.DeleteSectionWorker {
          + DeleteSectionWorker()
          + doWork()
      }
    }
  }
  

  namespace com.mad.p03.np2020.routine {
    namespace background {
      class com.mad.p03.np2020.routine.background.DeleteTaskWorker {
          + DeleteTaskWorker()
          + doWork()
      }
    }
  }
  

  namespace com.mad.p03.np2020.routine {
    namespace background {
      class com.mad.p03.np2020.routine.background.FCM {
          - TAG : String
          + onMessageReceived()
          + onNewToken()
          - addSectionSQL()
          - addTaskSQL()
          - deleteSectionSQL()
          - deleteTaskSQL()
          - sendRegistrationToServer()
      }
    }
  }
  

  namespace com.mad.p03.np2020.routine {
    namespace background {
      class com.mad.p03.np2020.routine.background.FocusWorker {
          - mDatabase : DatabaseReference
          - result : Task<Void>
          + FocusWorker()
          + doWork()
          - deleteToFirebase()
          - deserializeFromJson()
          - writeToFirebase()
      }
    }
  }
  

  namespace com.mad.p03.np2020.routine {
    namespace background {
      class com.mad.p03.np2020.routine.background.HabitGroupWorker {
          {static} - TAG : String
          - mDatabase : DatabaseReference
          + HabitGroupWorker()
          + doWork()
          - deserializeFromJson()
          - writeToFirebase()
      }
    }
  }
  

  namespace com.mad.p03.np2020.routine {
    namespace background {
      class com.mad.p03.np2020.routine.background.HabitWorker {
          {static} - TAG : String
          - mDatabase : DatabaseReference
          + HabitWorker()
          + doWork()
          - deleteToFirebase()
          - deserializeFromJson()
          - writeToFirebase()
      }
    }
  }
  

  namespace com.mad.p03.np2020.routine {
    namespace background {
      class com.mad.p03.np2020.routine.background.UploadDataWorker {
          + UploadDataWorker()
          + doWork()
      }
    }
  }
  

  namespace com.mad.p03.np2020.routine {
    namespace background {
      class com.mad.p03.np2020.routine.background.UploadSectionWorker {
          + UploadSectionWorker()
          + doWork()
      }
    }
  }
  

  namespace com.mad.p03.np2020.routine {
    namespace background {
      class com.mad.p03.np2020.routine.background.UploadTaskWorker {
          + UploadTaskWorker()
          + doWork()
      }
    }
  }
  

  com.mad.p03.np2020.routine.background.DeleteSectionWorker -up-|> androidx.work.Worker
  com.mad.p03.np2020.routine.background.DeleteTaskWorker -up-|> androidx.work.Worker
  com.mad.p03.np2020.routine.background.FCM -up-|> com.google.firebase.messaging.FirebaseMessagingService
  com.mad.p03.np2020.routine.background.FocusWorker -up-|> androidx.work.Worker
  com.mad.p03.np2020.routine.background.FocusWorker o- - com.mad.p03.np2020.routine.Class.Focus : focusData
  com.mad.p03.np2020.routine.background.HabitGroupWorker -up-|> androidx.work.Worker
  com.mad.p03.np2020.routine.background.HabitGroupWorker o- - com.mad.p03.np2020.routine.Class.HabitGroup : habitGroupData
  com.mad.p03.np2020.routine.background.HabitWorker -up-|> androidx.work.Worker
  com.mad.p03.np2020.routine.background.HabitWorker o- - com.mad.p03.np2020.routine.Class.Habit : habitData
  com.mad.p03.np2020.routine.background.UploadDataWorker -up-|> androidx.work.Worker
  com.mad.p03.np2020.routine.background.UploadSectionWorker -up-|> androidx.work.Worker
  com.mad.p03.np2020.routine.background.UploadTaskWorker -up-|> androidx.work.Worker


@enduml

PlantUML version 1.2020.03beta6(Unknown compile time)
(GPL source distribution)
Java Runtime: OpenJDK Runtime Environment
JVM: OpenJDK 64-Bit Server VM
Java Version: 1.8.0_212-release-1586-b04
Operating System: Windows 10
Default Encoding: Cp1252
Language: en
Country: SG
--></g></svg>