<?xml version="1.0" encoding="UTF-8" standalone="no"?><svg xmlns="http://www.w3.org/2000/svg" xmlns:xlink="http://www.w3.org/1999/xlink" contentScriptType="application/ecmascript" contentStyleType="text/css" height="349.46px" preserveAspectRatio="none" style="width:619px;height:349px;" version="1.1" viewBox="0 0 619 349" width="619.13px" zoomAndPan="magnify"><defs><filter height="300%" id="flx6hi24w5o0x" width="300%" x="-1" y="-1"><feGaussianBlur result="blurOut" stdDeviation="2.02"/><feColorMatrix in="blurOut" result="blurOut2" type="matrix" values="0 0 0 0 0 0 0 0 0 0 0 0 0 0 0 0 0 0 .4 0"/><feOffset dx="4.04" dy="4.04" in="blurOut2" result="blurOut3"/><feBlend in="SourceGraphic" in2="blurOut3" mode="normal"/></filter></defs><g><text fill="#000000" font-family="sans-serif" font-size="18.18" lengthAdjust="spacingAndGlyphs" text-decoration="underline" textLength="230.28" x="200.485" y="18.8724">DATABASE's Class Diagram</text><text fill="#000000" font-family="sans-serif" font-size="18.18" lengthAdjust="spacingAndGlyphs" textLength="0" x="318.15" y="41.7394"/><!--MD5=[c0528f8a8fd1d55ed309f20867289e3b]
cluster com.mad.p03.np2020.routine--><polygon fill="#FFFFFF" filter="url(#flx6hi24w5o0x)" points="22.22,69.9741,230.28,69.9741,237.35,93.8195,240.38,93.8195,240.38,337.6241,22.22,337.6241,22.22,69.9741" style="stroke: #000000; stroke-width: 1.5150000000000001;"/><line style="stroke: #000000; stroke-width: 1.5150000000000001;" x1="22.22" x2="237.35" y1="93.8195" y2="93.8195"/><text fill="#000000" font-family="sans-serif" font-size="14.14" font-weight="bold" lengthAdjust="spacingAndGlyphs" textLength="202" x="26.26" y="86.6726">com.mad.p03.np2020.routine</text><!--MD5=[4d693f715ca92bafca276f55718100f5]
cluster com.mad.p03.np2020.routine.database--><polygon fill="#FFFFFF" filter="url(#flx6hi24w5o0x)" points="57.57,114.4141,128.27,114.4141,135.34,138.2595,205.03,138.2595,205.03,313.3841,57.57,313.3841,57.57,114.4141" style="stroke: #000000; stroke-width: 1.5150000000000001;"/><line style="stroke: #000000; stroke-width: 1.5150000000000001;" x1="57.57" x2="135.34" y1="138.2595" y2="138.2595"/><text fill="#000000" font-family="sans-serif" font-size="14.14" font-weight="bold" lengthAdjust="spacingAndGlyphs" textLength="64.64" x="61.61" y="131.1126">database</text><!--MD5=[5e947de84f2d165e0f2b11301a50a902]
cluster android.database.sqlite--><polygon fill="#FFFFFF" filter="url(#flx6hi24w5o0x)" points="264.62,163.3991,437.33,163.3991,444.4,187.2445,447.43,187.2445,447.43,264.3991,264.62,264.3991,264.62,163.3991" style="stroke: #000000; stroke-width: 1.5150000000000001;"/><line style="stroke: #000000; stroke-width: 1.5150000000000001;" x1="264.62" x2="444.4" y1="187.2445" y2="187.2445"/><text fill="#000000" font-family="sans-serif" font-size="14.14" font-weight="bold" lengthAdjust="spacingAndGlyphs" textLength="166.65" x="268.66" y="180.0976">android.database.sqlite</text><!--MD5=[dea9b5bbfa9fcc376e7517230b1e1656]
cluster android.os--><polygon fill="#FFFFFF" filter="url(#flx6hi24w5o0x)" points="471.67,163.3991,553.48,163.3991,560.55,187.2445,596.91,187.2445,596.91,264.3991,471.67,264.3991,471.67,163.3991" style="stroke: #000000; stroke-width: 1.5150000000000001;"/><line style="stroke: #000000; stroke-width: 1.5150000000000001;" x1="471.67" x2="560.55" y1="187.2445" y2="187.2445"/><text fill="#000000" font-family="sans-serif" font-size="14.14" font-weight="bold" lengthAdjust="spacingAndGlyphs" textLength="75.75" x="475.71" y="180.0976">android.os</text><!--MD5=[dadf0b4e57daa73e5afc24023332b5f4]
class com.mad.p03.np2020.routine.database.UserDBHelper--><rect fill="#FEFECE" filter="url(#flx6hi24w5o0x)" height="146.3001" id="com.mad.p03.np2020.routine.database.UserDBHelper" style="stroke: #A80036; stroke-width: 1.5150000000000001;" width="114.13" x="74.235" y="150.7741"/><ellipse cx="89.385" cy="166.9341" fill="#ADD1B2" rx="11.11" ry="11.11" style="stroke: #A80036; stroke-width: 1.01;"/><path d="M91.405,163.3991 Q91.6102,162.8941 91.8469,162.6416 Q92.0836,162.3891 92.3519,162.3891 Q92.8253,162.3891 93.1252,162.6731 Q93.425,162.9572 93.425,163.62 L93.425,165.1981 Q93.425,165.8609 93.1409,166.145 Q92.8569,166.4291 92.415,166.4291 Q92.0205,166.4291 91.768,166.2555 Q91.5155,166.0819 91.405,165.6242 Q91.3577,165.3086 91.1841,165.135 Q90.8684,164.8036 90.3003,164.6063 Q89.7322,164.4091 89.1641,164.4091 Q88.4539,164.4091 87.8621,164.6931 Q87.2703,164.9772 86.8127,165.6084 Q86.355,166.2397 86.355,167.1077 L86.355,168.0388 Q86.355,169.0803 87.2072,169.7747 Q88.0594,170.4691 89.5744,170.4691 Q90.4739,170.4691 91.1052,170.2639 Q91.4681,170.1534 91.8784,169.7905 Q92.1467,169.5853 92.2888,169.5222 Q92.4308,169.4591 92.6044,169.4591 Q92.9358,169.4591 93.1804,169.7195 Q93.425,169.9798 93.425,170.3428 Q93.425,170.69 93.0778,171.1003 Q92.5728,171.7 91.768,172.0314 Q90.7106,172.4891 89.4166,172.4891 Q87.9016,172.4891 86.6864,171.8894 Q85.708,171.4159 85.0215,170.3902 Q84.335,169.3644 84.335,168.1492 L84.335,167.0445 Q84.335,165.782 84.9426,164.6773 Q85.5502,163.5727 86.6154,162.9809 Q87.6806,162.3891 88.88,162.3891 Q89.6059,162.3891 90.2372,162.6416 Q90.8684,162.8941 91.405,163.3991 Z "/><text fill="#000000" font-family="sans-serif" font-size="12.12" lengthAdjust="spacingAndGlyphs" textLength="81.81" x="103.525" y="171.8933">UserDBHelper</text><line style="stroke: #A80036; stroke-width: 1.5150000000000001;" x1="75.245" x2="187.355" y1="183.0941" y2="183.0941"/><rect fill="none" height="6.06" style="stroke: #C82930; stroke-width: 1.01;" width="6.06" x="82.315" y="191.1741"/><text fill="#000000" font-family="sans-serif" font-size="11.11" lengthAdjust="spacingAndGlyphs" textLength="59.59" x="94.435" y="198.6672">TAG : String</text><line style="stroke: #A80036; stroke-width: 1.5150000000000001;" x1="75.245" x2="187.355" y1="205.1484" y2="205.1484"/><ellipse cx="85.345" cy="216.2584" fill="#84BE84" rx="3.03" ry="3.03" style="stroke: #038048; stroke-width: 1.01;"/><text fill="#000000" font-family="sans-serif" font-size="11.11" lengthAdjust="spacingAndGlyphs" textLength="76.76" x="94.435" y="220.7215">UserDBHelper()</text><ellipse cx="85.345" cy="230.2327" fill="#84BE84" rx="3.03" ry="3.03" style="stroke: #038048; stroke-width: 1.01;"/><text fill="#000000" font-family="sans-serif" font-size="11.11" lengthAdjust="spacingAndGlyphs" textLength="46.46" x="94.435" y="234.6958">getUser()</text><ellipse cx="85.345" cy="244.207" fill="#84BE84" rx="3.03" ry="3.03" style="stroke: #038048; stroke-width: 1.01;"/><text fill="#000000" font-family="sans-serif" font-size="11.11" lengthAdjust="spacingAndGlyphs" textLength="58.58" x="94.435" y="248.6701">insertUser()</text><ellipse cx="85.345" cy="258.1813" fill="#84BE84" rx="3.03" ry="3.03" style="stroke: #038048; stroke-width: 1.01;"/><text fill="#000000" font-family="sans-serif" font-size="11.11" lengthAdjust="spacingAndGlyphs" textLength="52.52" x="94.435" y="262.6444">onCreate()</text><ellipse cx="85.345" cy="272.1555" fill="#84BE84" rx="3.03" ry="3.03" style="stroke: #038048; stroke-width: 1.01;"/><text fill="#000000" font-family="sans-serif" font-size="11.11" lengthAdjust="spacingAndGlyphs" textLength="77.77" x="94.435" y="276.6187">onDowngrade()</text><ellipse cx="85.345" cy="286.1298" fill="#84BE84" rx="3.03" ry="3.03" style="stroke: #038048; stroke-width: 1.01;"/><text fill="#000000" font-family="sans-serif" font-size="11.11" lengthAdjust="spacingAndGlyphs" textLength="61.61" x="94.435" y="290.593">onUpgrade()</text><!--MD5=[571f80f5957c67ac1f0e49d043ddd629]
class android.database.sqlite.SQLiteOpenHelper--><rect fill="#FEFECE" filter="url(#flx6hi24w5o0x)" height="48.48" id="android.database.sqlite.SQLiteOpenHelper" style="stroke: #A80036; stroke-width: 1.5150000000000001;" width="137.36" x="286.84" y="199.7591"/><ellipse cx="301.99" cy="215.9191" fill="#ADD1B2" rx="11.11" ry="11.11" style="stroke: #A80036; stroke-width: 1.01;"/><path d="M304.01,212.3841 Q304.2152,211.8791 304.4519,211.6266 Q304.6886,211.3741 304.9569,211.3741 Q305.4303,211.3741 305.7302,211.6581 Q306.03,211.9422 306.03,212.605 L306.03,214.1831 Q306.03,214.8459 305.7459,215.13 Q305.4619,215.4141 305.02,215.4141 Q304.6255,215.4141 304.373,215.2405 Q304.1205,215.0669 304.01,214.6092 Q303.9627,214.2936 303.7891,214.12 Q303.4734,213.7886 302.9053,213.5913 Q302.3372,213.3941 301.7691,213.3941 Q301.0589,213.3941 300.4671,213.6781 Q299.8753,213.9622 299.4177,214.5934 Q298.96,215.2247 298.96,216.0927 L298.96,217.0238 Q298.96,218.0653 299.8122,218.7597 Q300.6644,219.4541 302.1794,219.4541 Q303.0789,219.4541 303.7102,219.2489 Q304.0731,219.1384 304.4834,218.7755 Q304.7517,218.5703 304.8938,218.5072 Q305.0358,218.4441 305.2094,218.4441 Q305.5408,218.4441 305.7854,218.7045 Q306.03,218.9648 306.03,219.3278 Q306.03,219.675 305.6828,220.0853 Q305.1778,220.685 304.373,221.0164 Q303.3156,221.4741 302.0216,221.4741 Q300.5066,221.4741 299.2914,220.8744 Q298.313,220.4009 297.6265,219.3752 Q296.94,218.3494 296.94,217.1342 L296.94,216.0295 Q296.94,214.767 297.5476,213.6623 Q298.1552,212.5577 299.2204,211.9659 Q300.2856,211.3741 301.485,211.3741 Q302.2109,211.3741 302.8422,211.6266 Q303.4734,211.8791 304.01,212.3841 Z "/><text fill="#000000" font-family="sans-serif" font-size="12.12" lengthAdjust="spacingAndGlyphs" textLength="105.04" x="316.13" y="220.8783">SQLiteOpenHelper</text><line style="stroke: #A80036; stroke-width: 1.5150000000000001;" x1="287.85" x2="423.19" y1="232.0791" y2="232.0791"/><line style="stroke: #A80036; stroke-width: 1.5150000000000001;" x1="287.85" x2="423.19" y1="240.1591" y2="240.1591"/><!--MD5=[55e549cb5507dd26e28fb7640f5dae12]
class android.os.Parcelable--><rect fill="#FEFECE" filter="url(#flx6hi24w5o0x)" height="48.48" id="android.os.Parcelable" style="stroke: #A80036; stroke-width: 1.5150000000000001;" width="91.91" x="488.335" y="199.7591"/><ellipse cx="503.485" cy="215.9191" fill="#ADD1B2" rx="11.11" ry="11.11" style="stroke: #A80036; stroke-width: 1.01;"/><path d="M505.505,212.3841 Q505.7102,211.8791 505.9469,211.6266 Q506.1836,211.3741 506.4519,211.3741 Q506.9253,211.3741 507.2252,211.6581 Q507.525,211.9422 507.525,212.605 L507.525,214.1831 Q507.525,214.8459 507.2409,215.13 Q506.9569,215.4141 506.515,215.4141 Q506.1205,215.4141 505.868,215.2405 Q505.6155,215.0669 505.505,214.6092 Q505.4577,214.2936 505.2841,214.12 Q504.9684,213.7886 504.4003,213.5913 Q503.8322,213.3941 503.2641,213.3941 Q502.5539,213.3941 501.9621,213.6781 Q501.3703,213.9622 500.9127,214.5934 Q500.455,215.2247 500.455,216.0927 L500.455,217.0238 Q500.455,218.0653 501.3072,218.7597 Q502.1594,219.4541 503.6744,219.4541 Q504.5739,219.4541 505.2052,219.2489 Q505.5681,219.1384 505.9784,218.7755 Q506.2467,218.5703 506.3888,218.5072 Q506.5308,218.4441 506.7044,218.4441 Q507.0358,218.4441 507.2804,218.7045 Q507.525,218.9648 507.525,219.3278 Q507.525,219.675 507.1778,220.0853 Q506.6728,220.685 505.868,221.0164 Q504.8106,221.4741 503.5166,221.4741 Q502.0016,221.4741 500.7864,220.8744 Q499.808,220.4009 499.1215,219.3752 Q498.435,218.3494 498.435,217.1342 L498.435,216.0295 Q498.435,214.767 499.0426,213.6623 Q499.6502,212.5577 500.7154,211.9659 Q501.7806,211.3741 502.98,211.3741 Q503.7059,211.3741 504.3372,211.6266 Q504.9684,211.8791 505.505,212.3841 Z "/><text fill="#000000" font-family="sans-serif" font-size="12.12" lengthAdjust="spacingAndGlyphs" textLength="59.59" x="517.625" y="220.8783">Parcelable</text><line style="stroke: #A80036; stroke-width: 1.5150000000000001;" x1="489.345" x2="579.235" y1="232.0791" y2="232.0791"/><line style="stroke: #A80036; stroke-width: 1.5150000000000001;" x1="489.345" x2="579.235" y1="240.1591" y2="240.1591"/><!--MD5=[5499cd27e3b97556b317e214c0d16dbf]
@startuml

title __DATABASE's Class Diagram__\n

  namespace com.mad.p03.np2020.routine {
    namespace database {
      class com.mad.p03.np2020.routine.database.DBHelper {
          {static} ~ DATABASE_NAME : String
          {static} ~ DATABASE_VERSION : int
          {static} ~ mMyDatabaseListener : MyDatabaseListener
          + DBHelper()
          + onCreate()
          + onDowngrade()
          + onUpgrade()
      }
    }
  }
  

  namespace com.mad.p03.np2020.routine {
    namespace database {
      class com.mad.p03.np2020.routine.database.FocusDBHelper {
          + FocusDBHelper()
          + addData()
          + deleteAll()
          + describeContents()
          + getAllData()
          + isTableExists()
          + onCreate()
          + onDowngrade()
          + onUpgrade()
          + removeOneData()
          + writeToParcel()
      }
    }
  }
  

  namespace com.mad.p03.np2020.routine {
    namespace database {
      class com.mad.p03.np2020.routine.database.HabitDBHelper {
          - TAG : String
          + HabitDBHelper()
          + deleteHabit()
          + getAllHabits()
          + insertHabit()
          + onCreate()
          + onDowngrade()
          + onUpgrade()
          + updateCount()
          + updateHabit()
      }
    }
  }
  

  namespace com.mad.p03.np2020.routine {
    namespace database {
      class com.mad.p03.np2020.routine.database.HabitGroupDBHelper {
          - TAG : String
          + HabitGroupDBHelper()
          + getAllGroups()
          + insertGroup()
          + onCreate()
          + onDowngrade()
          + onUpgrade()
      }
    }
  }
  

  namespace com.mad.p03.np2020.routine {
    namespace database {
      interface com.mad.p03.np2020.routine.Interface.MyDatabaseListener {
          {abstract} + onDataAdd()
          {abstract} + onDataDelete()
      }
    }
  }
  

  namespace com.mad.p03.np2020.routine {
    namespace database {
      class com.mad.p03.np2020.routine.database.SectionDBHelper {
          - TAG : String
          {static} - mMyDatabaseListener : MyDatabaseListener
          + SectionDBHelper()
          + delete()
          + getAllSections()
          + getSection()
          + hasID()
          + insertSection()
          + onCreate()
          + onDowngrade()
          + onUpgrade()
          {static} + setMyDatabaseListener()
          + updatePosition()
      }
    }
  }
  

  namespace com.mad.p03.np2020.routine {
    namespace database {
      class com.mad.p03.np2020.routine.database.TaskDBHelper {
          - TAG : String
          {static} - mMyDatabaseListener : MyDatabaseListener
          + TaskDBHelper()
          + delete()
          + getAllTask()
          + hasID()
          + insertTask()
          + onCreate()
          + onDowngrade()
          + onUpgrade()
          {static} + setMyDatabaseListener()
      }
    }
  }
  

  namespace com.mad.p03.np2020.routine {
    namespace database {
      class com.mad.p03.np2020.routine.database.UserDBHelper {
          - TAG : String
          + UserDBHelper()
          + getUser()
          + insertUser()
          + onCreate()
          + onDowngrade()
          + onUpgrade()
      }
    }
  }
  

  com.mad.p03.np2020.routine.database.DBHelper -up-|> android.database.sqlite.SQLiteOpenHelper
  com.mad.p03.np2020.routine.database.FocusDBHelper .up.|> android.os.Parcelable
  com.mad.p03.np2020.routine.database.FocusDBHelper -up-|> com.mad.p03.np2020.routine.database.DBHelper
  com.mad.p03.np2020.routine.database.HabitDBHelper -up-|> com.mad.p03.np2020.routine.database.DBHelper
  com.mad.p03.np2020.routine.database.HabitGroupDBHelper -up-|> com.mad.p03.np2020.routine.database.DBHelper
  com.mad.p03.np2020.routine.database.SectionDBHelper -up-|> com.mad.p03.np2020.routine.database.DBHelper
  com.mad.p03.np2020.routine.database.TaskDBHelper -up-|> com.mad.p03.np2020.routine.database.DBHelper
  com.mad.p03.np2020.routine.database.UserDBHelper -up-|> com.mad.p03.np2020.routine.database.DBHelper

@enduml

PlantUML version 1.2020.03beta6(Unknown compile time)
(GPL source distribution)
Java Runtime: OpenJDK Runtime Environment
JVM: OpenJDK 64-Bit Server VM
Java Version: 1.8.0_212-release-1586-b04
Operating System: Windows 10
Default Encoding: Cp1252
Language: en
Country: SG
--></g></svg>