<?xml version="1.0" encoding="UTF-8" standalone="no"?><svg xmlns="http://www.w3.org/2000/svg" xmlns:xlink="http://www.w3.org/1999/xlink" contentScriptType="application/ecmascript" contentStyleType="text/css" height="780.73px" preserveAspectRatio="none" style="width:990px;height:780px;" version="1.1" viewBox="0 0 990 780" width="990.81px" zoomAndPan="magnify"><defs><filter height="300%" id="f13dd8q5fytt3x" width="300%" x="-1" y="-1"><feGaussianBlur result="blurOut" stdDeviation="2.02"/><feColorMatrix in="blurOut" result="blurOut2" type="matrix" values="0 0 0 0 0 0 0 0 0 0 0 0 0 0 0 0 0 0 .4 0"/><feOffset dx="4.04" dy="4.04" in="blurOut2" result="blurOut3"/><feBlend in="SourceGraphic" in2="blurOut3" mode="normal"/></filter></defs><g><text fill="#000000" font-family="sans-serif" font-size="18.18" lengthAdjust="spacingAndGlyphs" text-decoration="underline" textLength="255.53" x="361.58" y="18.8724">VIEWHOLDER's Class Diagram</text><text fill="#000000" font-family="sans-serif" font-size="18.18" lengthAdjust="spacingAndGlyphs" textLength="0" x="491.87" y="41.7394"/><!--MD5=[c0528f8a8fd1d55ed309f20867289e3b]
cluster com.mad.p03.np2020.routine--><polygon fill="#FFFFFF" filter="url(#f13dd8q5fytt3x)" points="334.31,204.3041,542.37,204.3041,549.44,228.1495,621.15,228.1495,621.15,541.6441,334.31,541.6441,334.31,204.3041" style="stroke: #000000; stroke-width: 1.5150000000000001;"/><line style="stroke: #000000; stroke-width: 1.5150000000000001;" x1="334.31" x2="549.44" y1="228.1495" y2="228.1495"/><text fill="#000000" font-family="sans-serif" font-size="14.14" font-weight="bold" lengthAdjust="spacingAndGlyphs" textLength="202" x="338.35" y="221.0026">com.mad.p03.np2020.routine</text><!--MD5=[7632367452d09b0161f62906580fbc76]
cluster com.mad.p03.np2020.routine.ViewHolder--><polygon fill="#FFFFFF" filter="url(#f13dd8q5fytt3x)" points="358.55,248.7441,445.41,248.7441,452.48,272.5895,596.91,272.5895,596.91,517.4041,358.55,517.4041,358.55,248.7441" style="stroke: #000000; stroke-width: 1.5150000000000001;"/><line style="stroke: #000000; stroke-width: 1.5150000000000001;" x1="358.55" x2="452.48" y1="272.5895" y2="272.5895"/><text fill="#000000" font-family="sans-serif" font-size="14.14" font-weight="bold" lengthAdjust="spacingAndGlyphs" textLength="80.8" x="362.59" y="265.4426">ViewHolder</text><!--MD5=[514ff022cafc989a2e3690be0e6f403f]
cluster android.view.View--><polygon fill="#FFFFFF" filter="url(#f13dd8q5fytt3x)" points="22.22,69.9741,157.56,69.9741,164.63,93.8195,340.37,93.8195,340.37,170.9741,22.22,170.9741,22.22,69.9741" style="stroke: #000000; stroke-width: 1.5150000000000001;"/><line style="stroke: #000000; stroke-width: 1.5150000000000001;" x1="22.22" x2="164.63" y1="93.8195" y2="93.8195"/><text fill="#000000" font-family="sans-serif" font-size="14.14" font-weight="bold" lengthAdjust="spacingAndGlyphs" textLength="129.28" x="26.26" y="86.6726">android.view.View</text><!--MD5=[38f035cb52bdd32f0497adb062304b55]
cluster androidx.recyclerview.widget.RecyclerView--><polygon fill="#FFFFFF" filter="url(#f13dd8q5fytt3x)" points="364.61,69.9741,678.72,69.9741,685.79,93.8195,688.82,93.8195,688.82,170.9741,364.61,170.9741,364.61,69.9741" style="stroke: #000000; stroke-width: 1.5150000000000001;"/><line style="stroke: #000000; stroke-width: 1.5150000000000001;" x1="364.61" x2="685.79" y1="93.8195" y2="93.8195"/><text fill="#000000" font-family="sans-serif" font-size="14.14" font-weight="bold" lengthAdjust="spacingAndGlyphs" textLength="308.05" x="368.65" y="86.6726">androidx.recyclerview.widget.RecyclerView</text><!--MD5=[da28c1d652eb8427c96880ce4ab84eeb]
cluster com.mad.p03.np2020.routine.Adapter--><polygon fill="#FFFFFF" filter="url(#f13dd8q5fytt3x)" points="374.71,592.1441,642.36,592.1441,649.43,615.9895,895.87,615.9895,895.87,693.1441,374.71,693.1441,374.71,592.1441" style="stroke: #000000; stroke-width: 1.5150000000000001;"/><line style="stroke: #000000; stroke-width: 1.5150000000000001;" x1="374.71" x2="649.43" y1="615.9895" y2="615.9895"/><text fill="#000000" font-family="sans-serif" font-size="14.14" font-weight="bold" lengthAdjust="spacingAndGlyphs" textLength="261.59" x="378.75" y="608.8426">com.mad.p03.np2020.routine.Adapter</text><!--MD5=[76340c4f0716695512d98c7fb8569119]
cluster android.view.GestureDetector--><polygon fill="#FFFFFF" filter="url(#f13dd8q5fytt3x)" points="713.06,69.9741,934.25,69.9741,941.32,93.8195,944.35,93.8195,944.35,170.9741,713.06,170.9741,713.06,69.9741" style="stroke: #000000; stroke-width: 1.5150000000000001;"/><line style="stroke: #000000; stroke-width: 1.5150000000000001;" x1="713.06" x2="941.32" y1="93.8195" y2="93.8195"/><text fill="#000000" font-family="sans-serif" font-size="14.14" font-weight="bold" lengthAdjust="spacingAndGlyphs" textLength="215.13" x="717.1" y="86.6726">android.view.GestureDetector</text><!--MD5=[92c0ed2430a6a69bf2cdc44469579072]
class com.mad.p03.np2020.routine.ViewHolder.TaskViewHolder--><rect fill="#FEFECE" filter="url(#f13dd8q5fytt3x)" height="216.1716" id="com.mad.p03.np2020.routine.ViewHolder.TaskViewHolder" style="stroke: #A80036; stroke-width: 1.5150000000000001;" width="205.03" x="375.215" y="285.1041"/><ellipse cx="427.9875" cy="301.2641" fill="#ADD1B2" rx="11.11" ry="11.11" style="stroke: #A80036; stroke-width: 1.01;"/><path d="M430.0075,297.7291 Q430.2127,297.2241 430.4494,296.9716 Q430.6861,296.7191 430.9544,296.7191 Q431.4278,296.7191 431.7277,297.0031 Q432.0275,297.2872 432.0275,297.95 L432.0275,299.5281 Q432.0275,300.1909 431.7434,300.475 Q431.4594,300.7591 431.0175,300.7591 Q430.623,300.7591 430.3705,300.5855 Q430.118,300.4119 430.0075,299.9542 Q429.9602,299.6386 429.7866,299.465 Q429.4709,299.1336 428.9028,298.9363 Q428.3347,298.7391 427.7666,298.7391 Q427.0564,298.7391 426.4646,299.0231 Q425.8728,299.3072 425.4152,299.9384 Q424.9575,300.5697 424.9575,301.4377 L424.9575,302.3688 Q424.9575,303.4103 425.8097,304.1047 Q426.6619,304.7991 428.1769,304.7991 Q429.0764,304.7991 429.7077,304.5939 Q430.0706,304.4834 430.4809,304.1205 Q430.7492,303.9153 430.8913,303.8522 Q431.0333,303.7891 431.2069,303.7891 Q431.5383,303.7891 431.7829,304.0495 Q432.0275,304.3098 432.0275,304.6728 Q432.0275,305.02 431.6803,305.4303 Q431.1753,306.03 430.3705,306.3614 Q429.3131,306.8191 428.0191,306.8191 Q426.5041,306.8191 425.2889,306.2194 Q424.3105,305.7459 423.624,304.7202 Q422.9375,303.6944 422.9375,302.4792 L422.9375,301.3745 Q422.9375,300.112 423.5451,299.0073 Q424.1527,297.9027 425.2179,297.3109 Q426.2831,296.7191 427.4825,296.7191 Q428.2084,296.7191 428.8397,296.9716 Q429.4709,297.2241 430.0075,297.7291 Z "/><text fill="#000000" font-family="sans-serif" font-size="12.12" lengthAdjust="spacingAndGlyphs" textLength="90.9" x="448.6925" y="306.2233">TaskViewHolder</text><line style="stroke: #A80036; stroke-width: 1.5150000000000001;" x1="376.225" x2="579.235" y1="317.4241" y2="317.4241"/><ellipse cx="386.325" cy="328.5341" fill="none" rx="3.03" ry="3.03" style="stroke: #038048; stroke-width: 1.01;"/><text fill="#000000" font-family="sans-serif" font-size="11.11" lengthAdjust="spacingAndGlyphs" textLength="116.15" x="395.415" y="332.9972">mCheckBox : CheckBox</text><ellipse cx="386.325" cy="342.5084" fill="none" rx="3.03" ry="3.03" style="stroke: #038048; stroke-width: 1.01;"/><text fill="#000000" font-family="sans-serif" font-size="11.11" lengthAdjust="spacingAndGlyphs" textLength="109.08" x="395.415" y="346.9715">mListName : TextView</text><polygon fill="none" points="386.325,352.4427,382.285,358.5027,390.365,358.5027" style="stroke: #1963A0; stroke-width: 1.01;"/><text fill="#000000" font-family="sans-serif" font-size="11.11" lengthAdjust="spacingAndGlyphs" textLength="178.77" x="395.415" y="360.9458">mGestureDetector : GestureDetector</text><polygon fill="none" points="386.325,366.417,382.285,372.477,390.365,372.477" style="stroke: #1963A0; stroke-width: 1.01;"/><text fill="#000000" font-family="sans-serif" font-size="11.11" lengthAdjust="spacingAndGlyphs" textLength="178.77" x="395.415" y="374.9201">mItemTouchHelper : ItemTouchHelper</text><line style="stroke: #A80036; stroke-width: 1.5150000000000001;" x1="376.225" x2="579.235" y1="381.4013" y2="381.4013"/><ellipse cx="386.325" cy="392.5113" fill="#84BE84" rx="3.03" ry="3.03" style="stroke: #038048; stroke-width: 1.01;"/><text fill="#000000" font-family="sans-serif" font-size="11.11" lengthAdjust="spacingAndGlyphs" textLength="88.88" x="395.415" y="396.9744">TaskViewHolder()</text><ellipse cx="386.325" cy="406.4855" fill="#84BE84" rx="3.03" ry="3.03" style="stroke: #038048; stroke-width: 1.01;"/><text fill="#000000" font-family="sans-serif" font-size="11.11" lengthAdjust="spacingAndGlyphs" textLength="49.49" x="395.415" y="410.9487">onDown()</text><ellipse cx="386.325" cy="420.4598" fill="#84BE84" rx="3.03" ry="3.03" style="stroke: #038048; stroke-width: 1.01;"/><text fill="#000000" font-family="sans-serif" font-size="11.11" lengthAdjust="spacingAndGlyphs" textLength="42.42" x="395.415" y="424.923">onFling()</text><ellipse cx="386.325" cy="434.4341" fill="#84BE84" rx="3.03" ry="3.03" style="stroke: #038048; stroke-width: 1.01;"/><text fill="#000000" font-family="sans-serif" font-size="11.11" lengthAdjust="spacingAndGlyphs" textLength="72.72" x="395.415" y="438.8973">onLongPress()</text><ellipse cx="386.325" cy="448.4084" fill="#84BE84" rx="3.03" ry="3.03" style="stroke: #038048; stroke-width: 1.01;"/><text fill="#000000" font-family="sans-serif" font-size="11.11" lengthAdjust="spacingAndGlyphs" textLength="47.47" x="395.415" y="452.8716">onScroll()</text><ellipse cx="386.325" cy="462.3827" fill="#84BE84" rx="3.03" ry="3.03" style="stroke: #038048; stroke-width: 1.01;"/><text fill="#000000" font-family="sans-serif" font-size="11.11" lengthAdjust="spacingAndGlyphs" textLength="77.77" x="395.415" y="466.8459">onShowPress()</text><ellipse cx="386.325" cy="476.357" fill="#84BE84" rx="3.03" ry="3.03" style="stroke: #038048; stroke-width: 1.01;"/><text fill="#000000" font-family="sans-serif" font-size="11.11" lengthAdjust="spacingAndGlyphs" textLength="80.8" x="395.415" y="480.8202">onSingleTapUp()</text><ellipse cx="386.325" cy="490.3313" fill="#84BE84" rx="3.03" ry="3.03" style="stroke: #038048; stroke-width: 1.01;"/><text fill="#000000" font-family="sans-serif" font-size="11.11" lengthAdjust="spacingAndGlyphs" textLength="50.5" x="395.415" y="494.7945">onTouch()</text><!--MD5=[0858b9b1d3aeed662d763a216cd7b05a]
class android.view.View.OnClickListener--><rect fill="#FEFECE" filter="url(#f13dd8q5fytt3x)" height="48.48" id="android.view.View.OnClickListener" style="stroke: #A80036; stroke-width: 1.5150000000000001;" width="121.2" x="38.38" y="106.3341"/><ellipse cx="53.53" cy="122.4941" fill="#ADD1B2" rx="11.11" ry="11.11" style="stroke: #A80036; stroke-width: 1.01;"/><path d="M55.55,118.9591 Q55.7552,118.4541 55.9919,118.2016 Q56.2286,117.9491 56.4969,117.9491 Q56.9703,117.9491 57.2702,118.2331 Q57.57,118.5172 57.57,119.18 L57.57,120.7581 Q57.57,121.4209 57.2859,121.705 Q57.0019,121.9891 56.56,121.9891 Q56.1655,121.9891 55.913,121.8155 Q55.6605,121.6419 55.55,121.1842 Q55.5027,120.8686 55.3291,120.695 Q55.0134,120.3636 54.4453,120.1663 Q53.8772,119.9691 53.3091,119.9691 Q52.5989,119.9691 52.0071,120.2531 Q51.4153,120.5372 50.9577,121.1684 Q50.5,121.7997 50.5,122.6677 L50.5,123.5988 Q50.5,124.6403 51.3522,125.3347 Q52.2044,126.0291 53.7194,126.0291 Q54.6189,126.0291 55.2502,125.8239 Q55.6131,125.7134 56.0234,125.3505 Q56.2917,125.1453 56.4338,125.0822 Q56.5758,125.0191 56.7494,125.0191 Q57.0808,125.0191 57.3254,125.2795 Q57.57,125.5398 57.57,125.9028 Q57.57,126.25 57.2228,126.6603 Q56.7178,127.26 55.913,127.5914 Q54.8556,128.0491 53.5616,128.0491 Q52.0466,128.0491 50.8314,127.4494 Q49.853,126.9759 49.1665,125.9502 Q48.48,124.9244 48.48,123.7092 L48.48,122.6045 Q48.48,121.342 49.0876,120.2373 Q49.6952,119.1327 50.7604,118.5409 Q51.8256,117.9491 53.025,117.9491 Q53.7509,117.9491 54.3822,118.2016 Q55.0134,118.4541 55.55,118.9591 Z "/><text fill="#000000" font-family="sans-serif" font-size="12.12" lengthAdjust="spacingAndGlyphs" textLength="88.88" x="67.67" y="127.4533">OnClickListener</text><line style="stroke: #A80036; stroke-width: 1.5150000000000001;" x1="39.39" x2="158.57" y1="138.6541" y2="138.6541"/><line style="stroke: #A80036; stroke-width: 1.5150000000000001;" x1="39.39" x2="158.57" y1="146.7341" y2="146.7341"/><!--MD5=[e3f15e8dfdec7302c02b8127328f7820]
class android.view.View.OnTouchListener--><rect fill="#FEFECE" filter="url(#f13dd8q5fytt3x)" height="48.48" id="android.view.View.OnTouchListener" style="stroke: #A80036; stroke-width: 1.5150000000000001;" width="128.27" x="195.435" y="106.3341"/><ellipse cx="210.585" cy="122.4941" fill="#ADD1B2" rx="11.11" ry="11.11" style="stroke: #A80036; stroke-width: 1.01;"/><path d="M212.605,118.9591 Q212.8102,118.4541 213.0469,118.2016 Q213.2836,117.9491 213.5519,117.9491 Q214.0253,117.9491 214.3252,118.2331 Q214.625,118.5172 214.625,119.18 L214.625,120.7581 Q214.625,121.4209 214.3409,121.705 Q214.0569,121.9891 213.615,121.9891 Q213.2205,121.9891 212.968,121.8155 Q212.7155,121.6419 212.605,121.1842 Q212.5577,120.8686 212.3841,120.695 Q212.0684,120.3636 211.5003,120.1663 Q210.9322,119.9691 210.3641,119.9691 Q209.6539,119.9691 209.0621,120.2531 Q208.4703,120.5372 208.0127,121.1684 Q207.555,121.7997 207.555,122.6677 L207.555,123.5988 Q207.555,124.6403 208.4072,125.3347 Q209.2594,126.0291 210.7744,126.0291 Q211.6739,126.0291 212.3052,125.8239 Q212.6681,125.7134 213.0784,125.3505 Q213.3467,125.1453 213.4888,125.0822 Q213.6308,125.0191 213.8044,125.0191 Q214.1358,125.0191 214.3804,125.2795 Q214.625,125.5398 214.625,125.9028 Q214.625,126.25 214.2778,126.6603 Q213.7728,127.26 212.968,127.5914 Q211.9106,128.0491 210.6166,128.0491 Q209.1016,128.0491 207.8864,127.4494 Q206.908,126.9759 206.2215,125.9502 Q205.535,124.9244 205.535,123.7092 L205.535,122.6045 Q205.535,121.342 206.1426,120.2373 Q206.7502,119.1327 207.8154,118.5409 Q208.8806,117.9491 210.08,117.9491 Q210.8059,117.9491 211.4372,118.2016 Q212.0684,118.4541 212.605,118.9591 Z "/><text fill="#000000" font-family="sans-serif" font-size="12.12" lengthAdjust="spacingAndGlyphs" textLength="95.95" x="224.725" y="127.4533">OnTouchListener</text><line style="stroke: #A80036; stroke-width: 1.5150000000000001;" x1="196.445" x2="322.695" y1="138.6541" y2="138.6541"/><line style="stroke: #A80036; stroke-width: 1.5150000000000001;" x1="196.445" x2="322.695" y1="146.7341" y2="146.7341"/><!--MD5=[eac4ce89c18f432013da3288e1740f8d]
class androidx.recyclerview.widget.RecyclerView.ViewHolder--><rect fill="#FEFECE" filter="url(#f13dd8q5fytt3x)" height="48.48" id="androidx.recyclerview.widget.RecyclerView.ViewHolder" style="stroke: #A80036; stroke-width: 1.5150000000000001;" width="95.95" x="429.755" y="106.3341"/><ellipse cx="444.905" cy="122.4941" fill="#ADD1B2" rx="11.11" ry="11.11" style="stroke: #A80036; stroke-width: 1.01;"/><path d="M446.925,118.9591 Q447.1302,118.4541 447.3669,118.2016 Q447.6036,117.9491 447.8719,117.9491 Q448.3453,117.9491 448.6452,118.2331 Q448.945,118.5172 448.945,119.18 L448.945,120.7581 Q448.945,121.4209 448.6609,121.705 Q448.3769,121.9891 447.935,121.9891 Q447.5405,121.9891 447.288,121.8155 Q447.0355,121.6419 446.925,121.1842 Q446.8777,120.8686 446.7041,120.695 Q446.3884,120.3636 445.8203,120.1663 Q445.2522,119.9691 444.6841,119.9691 Q443.9739,119.9691 443.3821,120.2531 Q442.7903,120.5372 442.3327,121.1684 Q441.875,121.7997 441.875,122.6677 L441.875,123.5988 Q441.875,124.6403 442.7272,125.3347 Q443.5794,126.0291 445.0944,126.0291 Q445.9939,126.0291 446.6252,125.8239 Q446.9881,125.7134 447.3984,125.3505 Q447.6667,125.1453 447.8088,125.0822 Q447.9508,125.0191 448.1244,125.0191 Q448.4558,125.0191 448.7004,125.2795 Q448.945,125.5398 448.945,125.9028 Q448.945,126.25 448.5978,126.6603 Q448.0928,127.26 447.288,127.5914 Q446.2306,128.0491 444.9366,128.0491 Q443.4216,128.0491 442.2064,127.4494 Q441.228,126.9759 440.5415,125.9502 Q439.855,124.9244 439.855,123.7092 L439.855,122.6045 Q439.855,121.342 440.4626,120.2373 Q441.0702,119.1327 442.1354,118.5409 Q443.2006,117.9491 444.4,117.9491 Q445.1259,117.9491 445.7572,118.2016 Q446.3884,118.4541 446.925,118.9591 Z "/><text fill="#000000" font-family="sans-serif" font-size="12.12" lengthAdjust="spacingAndGlyphs" textLength="63.63" x="459.045" y="127.4533">ViewHolder</text><line style="stroke: #A80036; stroke-width: 1.5150000000000001;" x1="430.765" x2="524.695" y1="138.6541" y2="138.6541"/><line style="stroke: #A80036; stroke-width: 1.5150000000000001;" x1="430.765" x2="524.695" y1="146.7341" y2="146.7341"/><!--MD5=[01672f68e3ab9f412119f4b2eccd8231]
class com.mad.p03.np2020.routine.Adapter.FocusAdapter--><rect fill="#FEFECE" filter="url(#f13dd8q5fytt3x)" height="48.48" id="com.mad.p03.np2020.routine.Adapter.FocusAdapter" style="stroke: #A80036; stroke-width: 1.5150000000000001;" width="109.08" x="770.63" y="628.5041"/><ellipse cx="785.78" cy="644.6641" fill="#ADD1B2" rx="11.11" ry="11.11" style="stroke: #A80036; stroke-width: 1.01;"/><path d="M787.8,641.1291 Q788.0052,640.6241 788.2419,640.3716 Q788.4786,640.1191 788.7469,640.1191 Q789.2203,640.1191 789.5202,640.4031 Q789.82,640.6872 789.82,641.35 L789.82,642.9281 Q789.82,643.5909 789.5359,643.875 Q789.2519,644.1591 788.81,644.1591 Q788.4155,644.1591 788.163,643.9855 Q787.9105,643.8119 787.8,643.3542 Q787.7527,643.0386 787.5791,642.865 Q787.2634,642.5336 786.6953,642.3363 Q786.1272,642.1391 785.5591,642.1391 Q784.8489,642.1391 784.2571,642.4231 Q783.6653,642.7072 783.2077,643.3384 Q782.75,643.9697 782.75,644.8377 L782.75,645.7688 Q782.75,646.8103 783.6022,647.5047 Q784.4544,648.1991 785.9694,648.1991 Q786.8689,648.1991 787.5002,647.9939 Q787.8631,647.8834 788.2734,647.5205 Q788.5417,647.3153 788.6838,647.2522 Q788.8258,647.1891 788.9994,647.1891 Q789.3308,647.1891 789.5754,647.4495 Q789.82,647.7098 789.82,648.0728 Q789.82,648.42 789.4728,648.8303 Q788.9678,649.43 788.163,649.7614 Q787.1056,650.2191 785.8116,650.2191 Q784.2966,650.2191 783.0814,649.6194 Q782.103,649.1459 781.4165,648.1202 Q780.73,647.0944 780.73,645.8792 L780.73,644.7745 Q780.73,643.512 781.3376,642.4073 Q781.9452,641.3027 783.0104,640.7109 Q784.0756,640.1191 785.275,640.1191 Q786.0009,640.1191 786.6322,640.3716 Q787.2634,640.6241 787.8,641.1291 Z "/><text fill="#000000" font-family="sans-serif" font-size="12.12" lengthAdjust="spacingAndGlyphs" textLength="76.76" x="799.92" y="649.6233">FocusAdapter</text><line style="stroke: #A80036; stroke-width: 1.5150000000000001;" x1="771.64" x2="878.7" y1="660.8241" y2="660.8241"/><line style="stroke: #A80036; stroke-width: 1.5150000000000001;" x1="771.64" x2="878.7" y1="668.9041" y2="668.9041"/><!--MD5=[ed5e7bcafa197380ffd301e2e5717910]
class com.mad.p03.np2020.routine.Adapter.OnSectionListener--><rect fill="#FEFECE" filter="url(#f13dd8q5fytt3x)" height="48.48" id="com.mad.p03.np2020.routine.Adapter.OnSectionListener" style="stroke: #A80036; stroke-width: 1.5150000000000001;" width="135.34" x="599.94" y="628.5041"/><ellipse cx="615.09" cy="644.6641" fill="#ADD1B2" rx="11.11" ry="11.11" style="stroke: #A80036; stroke-width: 1.01;"/><path d="M617.11,641.1291 Q617.3152,640.6241 617.5519,640.3716 Q617.7886,640.1191 618.0569,640.1191 Q618.5303,640.1191 618.8302,640.4031 Q619.13,640.6872 619.13,641.35 L619.13,642.9281 Q619.13,643.5909 618.8459,643.875 Q618.5619,644.1591 618.12,644.1591 Q617.7255,644.1591 617.473,643.9855 Q617.2205,643.8119 617.11,643.3542 Q617.0627,643.0386 616.8891,642.865 Q616.5734,642.5336 616.0053,642.3363 Q615.4372,642.1391 614.8691,642.1391 Q614.1589,642.1391 613.5671,642.4231 Q612.9753,642.7072 612.5177,643.3384 Q612.06,643.9697 612.06,644.8377 L612.06,645.7688 Q612.06,646.8103 612.9122,647.5047 Q613.7644,648.1991 615.2794,648.1991 Q616.1789,648.1991 616.8102,647.9939 Q617.1731,647.8834 617.5834,647.5205 Q617.8517,647.3153 617.9938,647.2522 Q618.1358,647.1891 618.3094,647.1891 Q618.6408,647.1891 618.8854,647.4495 Q619.13,647.7098 619.13,648.0728 Q619.13,648.42 618.7828,648.8303 Q618.2778,649.43 617.473,649.7614 Q616.4156,650.2191 615.1216,650.2191 Q613.6066,650.2191 612.3914,649.6194 Q611.413,649.1459 610.7265,648.1202 Q610.04,647.0944 610.04,645.8792 L610.04,644.7745 Q610.04,643.512 610.6476,642.4073 Q611.2552,641.3027 612.3204,640.7109 Q613.3856,640.1191 614.585,640.1191 Q615.3109,640.1191 615.9422,640.3716 Q616.5734,640.6241 617.11,641.1291 Z "/><text fill="#000000" font-family="sans-serif" font-size="12.12" lengthAdjust="spacingAndGlyphs" textLength="103.02" x="629.23" y="649.6233">OnSectionListener</text><line style="stroke: #A80036; stroke-width: 1.5150000000000001;" x1="600.95" x2="734.27" y1="660.8241" y2="660.8241"/><line style="stroke: #A80036; stroke-width: 1.5150000000000001;" x1="600.95" x2="734.27" y1="668.9041" y2="668.9041"/><!--MD5=[5026c2bfe8c410f615a435c2d70b1b27]
class com.mad.p03.np2020.routine.Adapter.TaskTouchHelperAdapter--><rect fill="#FEFECE" filter="url(#f13dd8q5fytt3x)" height="48.48" id="com.mad.p03.np2020.routine.Adapter.TaskTouchHelperAdapter" style="stroke: #A80036; stroke-width: 1.5150000000000001;" width="173.72" x="390.87" y="628.5041"/><ellipse cx="406.02" cy="644.6641" fill="#ADD1B2" rx="11.11" ry="11.11" style="stroke: #A80036; stroke-width: 1.01;"/><path d="M408.04,641.1291 Q408.2452,640.6241 408.4819,640.3716 Q408.7186,640.1191 408.9869,640.1191 Q409.4603,640.1191 409.7602,640.4031 Q410.06,640.6872 410.06,641.35 L410.06,642.9281 Q410.06,643.5909 409.7759,643.875 Q409.4919,644.1591 409.05,644.1591 Q408.6555,644.1591 408.403,643.9855 Q408.1505,643.8119 408.04,643.3542 Q407.9927,643.0386 407.8191,642.865 Q407.5034,642.5336 406.9353,642.3363 Q406.3672,642.1391 405.7991,642.1391 Q405.0889,642.1391 404.4971,642.4231 Q403.9053,642.7072 403.4477,643.3384 Q402.99,643.9697 402.99,644.8377 L402.99,645.7688 Q402.99,646.8103 403.8422,647.5047 Q404.6944,648.1991 406.2094,648.1991 Q407.1089,648.1991 407.7402,647.9939 Q408.1031,647.8834 408.5134,647.5205 Q408.7817,647.3153 408.9238,647.2522 Q409.0658,647.1891 409.2394,647.1891 Q409.5708,647.1891 409.8154,647.4495 Q410.06,647.7098 410.06,648.0728 Q410.06,648.42 409.7128,648.8303 Q409.2078,649.43 408.403,649.7614 Q407.3456,650.2191 406.0516,650.2191 Q404.5366,650.2191 403.3214,649.6194 Q402.343,649.1459 401.6565,648.1202 Q400.97,647.0944 400.97,645.8792 L400.97,644.7745 Q400.97,643.512 401.5776,642.4073 Q402.1852,641.3027 403.2504,640.7109 Q404.3156,640.1191 405.515,640.1191 Q406.2409,640.1191 406.8722,640.3716 Q407.5034,640.6241 408.04,641.1291 Z "/><text fill="#000000" font-family="sans-serif" font-size="12.12" lengthAdjust="spacingAndGlyphs" textLength="141.4" x="420.16" y="649.6233">TaskTouchHelperAdapter</text><line style="stroke: #A80036; stroke-width: 1.5150000000000001;" x1="391.88" x2="563.58" y1="660.8241" y2="660.8241"/><line style="stroke: #A80036; stroke-width: 1.5150000000000001;" x1="391.88" x2="563.58" y1="668.9041" y2="668.9041"/><!--MD5=[8d2b164d94b5aa26ed102cea26bc6f84]
class android.view.GestureDetector.OnGestureListener--><rect fill="#FEFECE" filter="url(#f13dd8q5fytt3x)" height="48.48" id="android.view.GestureDetector.OnGestureListener" style="stroke: #A80036; stroke-width: 1.5150000000000001;" width="138.37" x="729.725" y="106.3341"/><ellipse cx="744.875" cy="122.4941" fill="#ADD1B2" rx="11.11" ry="11.11" style="stroke: #A80036; stroke-width: 1.01;"/><path d="M746.895,118.9591 Q747.1002,118.4541 747.3369,118.2016 Q747.5736,117.9491 747.8419,117.9491 Q748.3153,117.9491 748.6152,118.2331 Q748.915,118.5172 748.915,119.18 L748.915,120.7581 Q748.915,121.4209 748.6309,121.705 Q748.3469,121.9891 747.905,121.9891 Q747.5105,121.9891 747.258,121.8155 Q747.0055,121.6419 746.895,121.1842 Q746.8477,120.8686 746.6741,120.695 Q746.3584,120.3636 745.7903,120.1663 Q745.2222,119.9691 744.6541,119.9691 Q743.9439,119.9691 743.3521,120.2531 Q742.7603,120.5372 742.3027,121.1684 Q741.845,121.7997 741.845,122.6677 L741.845,123.5988 Q741.845,124.6403 742.6972,125.3347 Q743.5494,126.0291 745.0644,126.0291 Q745.9639,126.0291 746.5952,125.8239 Q746.9581,125.7134 747.3684,125.3505 Q747.6367,125.1453 747.7788,125.0822 Q747.9208,125.0191 748.0944,125.0191 Q748.4258,125.0191 748.6704,125.2795 Q748.915,125.5398 748.915,125.9028 Q748.915,126.25 748.5678,126.6603 Q748.0628,127.26 747.258,127.5914 Q746.2006,128.0491 744.9066,128.0491 Q743.3916,128.0491 742.1764,127.4494 Q741.198,126.9759 740.5115,125.9502 Q739.825,124.9244 739.825,123.7092 L739.825,122.6045 Q739.825,121.342 740.4326,120.2373 Q741.0402,119.1327 742.1054,118.5409 Q743.1706,117.9491 744.37,117.9491 Q745.0959,117.9491 745.7272,118.2016 Q746.3584,118.4541 746.895,118.9591 Z "/><text fill="#000000" font-family="sans-serif" font-size="12.12" lengthAdjust="spacingAndGlyphs" textLength="106.05" x="759.015" y="127.4533">OnGestureListener</text><line style="stroke: #A80036; stroke-width: 1.5150000000000001;" x1="730.735" x2="867.085" y1="138.6541" y2="138.6541"/><line style="stroke: #A80036; stroke-width: 1.5150000000000001;" x1="730.735" x2="867.085" y1="146.7341" y2="146.7341"/><!--MD5=[ab4649487152114aa6442f67fda0ee14]
reverse link android.view.GestureDetector.OnGestureListener to com.mad.p03.np2020.routine.ViewHolder.TaskViewHolder--><path d="M754.3175,167.7633 C709.5775,204.0617 639.0836,261.2539 580.4632,308.8138 " fill="none" id="android.view.GestureDetector.OnGestureListener&lt;-com.mad.p03.np2020.routine.ViewHolder.TaskViewHolder" style="stroke: #A80036; stroke-width: 1.01; stroke-dasharray: 7.0,7.0;"/><polygon fill="none" points="749.9836,162.1749,770.125,154.9383,758.8928,173.1557,749.9836,162.1749" style="stroke: #A80036; stroke-width: 1.01;"/><!--MD5=[2b68084e7fb9e88fe8a1bc3fe62e122c]
reverse link android.view.View.OnTouchListener to com.mad.p03.np2020.routine.ViewHolder.TaskViewHolder--><path d="M292.5394,170.964 C317.9076,201.265 354.2232,244.6425 387.9865,284.9697 " fill="none" id="android.view.View.OnTouchListener&lt;-com.mad.p03.np2020.routine.ViewHolder.TaskViewHolder" style="stroke: #A80036; stroke-width: 1.01; stroke-dasharray: 7.0,7.0;"/><polygon fill="none" points="286.8612,175.1959,279.3155,155.1686,297.7036,166.118,286.8612,175.1959" style="stroke: #A80036; stroke-width: 1.01;"/><!--MD5=[6dccf3f922ef9555286c080e1a69a01e]
reverse link androidx.recyclerview.widget.RecyclerView.ViewHolder to com.mad.p03.np2020.routine.ViewHolder.TaskViewHolder--><path d="M477.73,175.716 C477.73,205.6948 477.73,246.7059 477.73,284.9697 " fill="none" id="androidx.recyclerview.widget.RecyclerView.ViewHolder&lt;-com.mad.p03.np2020.routine.ViewHolder.TaskViewHolder" style="stroke: #A80036; stroke-width: 1.01;"/><polygon fill="none" points="470.66,175.3686,477.73,155.1686,484.8,175.3686,470.66,175.3686" style="stroke: #A80036; stroke-width: 1.01;"/><!--MD5=[edeb13839dd4a1a50e89d438319d03c0]
reverse link com.mad.p03.np2020.routine.ViewHolder.TaskViewHolder to com.mad.p03.np2020.routine.Adapter.TaskTouchHelperAdapter--><path d="M477.73,514.8629 C477.73,557.9768 477.73,602.3047 477.73,628.4155 " fill="none" id="com.mad.p03.np2020.routine.ViewHolder.TaskViewHolder&lt;-com.mad.p03.np2020.routine.Adapter.TaskTouchHelperAdapter" style="stroke: #A80036; stroke-width: 1.01;"/><polygon fill="#FFFFFF" points="477.73,501.543,473.69,507.603,477.73,513.663,481.77,507.603,477.73,501.543" style="stroke: #A80036; stroke-width: 1.01;"/><text fill="#000000" font-family="sans-serif" font-size="13.13" lengthAdjust="spacingAndGlyphs" textLength="157.56" x="478.74" y="572.4441">mTaskTouchHelperAdapter</text><text fill="#888888" font-family="sans-serif" font-size="10.1" lengthAdjust="spacingAndGlyphs" textLength="0" x="978.69" y="729.8887"/><text fill="#888888" font-family="sans-serif" font-size="10.1" lengthAdjust="spacingAndGlyphs" textLength="0" x="978.69" y="742.5926"/><text fill="#888888" font-family="sans-serif" font-size="10.1" lengthAdjust="spacingAndGlyphs" textLength="395.92" x="582.77" y="755.2965">PlantUML diagram generated by SketchIt! (https://bitbucket.org/pmesmeur/sketch.it)</text><text fill="#888888" font-family="sans-serif" font-size="10.1" lengthAdjust="spacingAndGlyphs" textLength="397.94" x="580.75" y="768.0004">For more information about this tool, please contact philippe.mesmeur@gmail.com</text><!--MD5=[2440fa772ba92096949ea26c4d512cb1]
@startuml

title __VIEWHOLDER's Class Diagram__\n

  namespace com.mad.p03.np2020.routine {
    namespace ViewHolder {
      class com.mad.p03.np2020.routine.ViewHolder.FocusViewHolder {
          + Task : TextView
          + date : TextView
          + duration : TextView
          + iconComplete : ImageView
          + parent : ViewGroup
          + FocusViewHolder()
          + onClick()
          + showAlertDialogButtonClicked()
      }
    }
  }
  

  namespace com.mad.p03.np2020.routine {
    namespace ViewHolder {
      class com.mad.p03.np2020.routine.ViewHolder.HabitGroupHolder {
          + grp_name : TextView
          + HabitGroupHolder()
      }
    }
  }
  

  namespace com.mad.p03.np2020.routine {
    namespace ViewHolder {
      class com.mad.p03.np2020.routine.ViewHolder.HabitHolder {
          + addBtn : ImageButton
          + habit_row : RelativeLayout
          + mCount : TextView
          + mCount2 : TextView
          + mOccurrence : TextView
          + mPeriod : TextView
          + mTitle : TextView
          + HabitHolder()
      }
    }
  }
  

  namespace com.mad.p03.np2020.routine {
    namespace ViewHolder {
      class com.mad.p03.np2020.routine.ViewHolder.MyHomeViewHolder {
          + mImgBackGround : ImageView
          + mTextViewListName : TextView
          + mimgIcon : ImageView
          ~ mGestureDetector : GestureDetector
          ~ mTouchHelper : ItemTouchHelper
          + MyHomeViewHolder()
          + onDown()
          + onFling()
          + onLongPress()
          + onScroll()
          + onShowPress()
          + onSingleTapUp()
          + onTouch()
      }
    }
  }
  

  namespace com.mad.p03.np2020.routine {
    namespace ViewHolder {
      class com.mad.p03.np2020.routine.ViewHolder.TaskViewHolder {
          + mCheckBox : CheckBox
          + mListName : TextView
          ~ mGestureDetector : GestureDetector
          ~ mItemTouchHelper : ItemTouchHelper
          + TaskViewHolder()
          + onDown()
          + onFling()
          + onLongPress()
          + onScroll()
          + onShowPress()
          + onSingleTapUp()
          + onTouch()
      }
    }
  }
  

  com.mad.p03.np2020.routine.ViewHolder.FocusViewHolder .up.|> android.view.View.OnClickListener
  com.mad.p03.np2020.routine.ViewHolder.FocusViewHolder -up-|> androidx.recyclerview.widget.RecyclerView.ViewHolder
  com.mad.p03.np2020.routine.ViewHolder.FocusViewHolder o- - com.mad.p03.np2020.routine.Adapter.FocusAdapter : adapter
  com.mad.p03.np2020.routine.ViewHolder.HabitGroupHolder -up-|> androidx.recyclerview.widget.RecyclerView.ViewHolder
  com.mad.p03.np2020.routine.ViewHolder.HabitHolder -up-|> androidx.recyclerview.widget.RecyclerView.ViewHolder
  com.mad.p03.np2020.routine.ViewHolder.MyHomeViewHolder .up.|> android.view.GestureDetector.OnGestureListener
  com.mad.p03.np2020.routine.ViewHolder.MyHomeViewHolder .up.|> android.view.View.OnTouchListener
  com.mad.p03.np2020.routine.ViewHolder.MyHomeViewHolder -up-|> androidx.recyclerview.widget.RecyclerView.ViewHolder
  com.mad.p03.np2020.routine.ViewHolder.MyHomeViewHolder o- - com.mad.p03.np2020.routine.Adapter.OnSectionListener : mOnSectionListener
  com.mad.p03.np2020.routine.ViewHolder.TaskViewHolder .up.|> android.view.GestureDetector.OnGestureListener
  com.mad.p03.np2020.routine.ViewHolder.TaskViewHolder .up.|> android.view.View.OnTouchListener
  com.mad.p03.np2020.routine.ViewHolder.TaskViewHolder -up-|> androidx.recyclerview.widget.RecyclerView.ViewHolder
  com.mad.p03.np2020.routine.ViewHolder.TaskViewHolder o- - com.mad.p03.np2020.routine.Adapter.TaskTouchHelperAdapter : mTaskTouchHelperAdapter


right footer


PlantUML diagram generated by SketchIt! (https://bitbucket.org/pmesmeur/sketch.it)
For more information about this tool, please contact philippe.mesmeur@gmail.com
endfooter

@enduml

PlantUML version 1.2020.03beta6(Unknown compile time)
(GPL source distribution)
Java Runtime: OpenJDK Runtime Environment
JVM: OpenJDK 64-Bit Server VM
Java Version: 1.8.0_212-release-1586-b04
Operating System: Windows 10
Default Encoding: Cp1252
Language: en
Country: SG
--></g></svg>